<svg width="32" height="32" viewBox="0 0 32 32" fill="none" xmlns="http://www.w3.org/2000/svg">
<path fill-rule="evenodd" clip-rule="evenodd" d="M16.7507 4.26663H15.2494L14.3894 7.70396L13.5267 7.97063C13.024 8.12553 12.537 8.3273 12.072 8.57329L11.2734 8.99596L8.23335 7.17196L7.17202 8.23463L8.99602 11.2746L8.57335 12.072C8.3269 12.5369 8.12468 13.0239 7.96935 13.5266L7.70402 14.3893L4.26669 15.2493V16.7506L7.70402 17.6106L7.97069 18.4733C8.12446 18.9782 8.32535 19.4631 8.57335 19.928L8.99602 20.7266L7.17202 23.7666L8.23469 24.828L11.2747 23.004L12.072 23.4266C12.5369 23.6737 13.0218 23.8751 13.5267 24.0306L14.3894 24.296L15.2494 27.7333H16.7507L17.6107 24.296L18.4734 24.0293C18.976 23.8744 19.4631 23.6726 19.928 23.4266L20.7267 23.004L23.7667 24.828L24.828 23.7653L23.004 20.7253L23.4267 19.928C23.6738 19.4631 23.8751 18.9782 24.0307 18.4733L24.296 17.6106L27.7334 16.7506V15.2493L24.296 14.3893L24.0294 13.5266C23.8745 13.0239 23.6727 12.5369 23.4267 12.072L23.004 11.2733L24.828 8.23329L23.7654 7.17196L20.7254 8.99596L19.928 8.57329C19.4631 8.32684 18.9761 8.12462 18.4734 7.96929L17.6107 7.70396L16.7507 4.26663ZM20.6774 7.15996L23.1214 5.69329C23.3762 5.54044 23.6748 5.47711 23.9697 5.51334C24.2647 5.54957 24.5391 5.6833 24.7494 5.89329L26.1067 7.25063C26.3167 7.46089 26.4504 7.73528 26.4866 8.03023C26.5229 8.32518 26.4595 8.62378 26.3067 8.87863L24.84 11.3226C25.1334 11.8737 25.3734 12.4515 25.56 13.056L28.324 13.748C28.6124 13.8202 28.8683 13.9867 29.0511 14.221C29.234 14.4553 29.3333 14.7441 29.3334 15.0413V16.9586C29.3333 17.2559 29.234 17.5446 29.0511 17.7789C28.8683 18.0132 28.6124 18.1797 28.324 18.252L25.56 18.944C25.3734 19.5484 25.1334 20.1262 24.84 20.6773L26.3067 23.1213C26.4595 23.3761 26.5229 23.6747 26.4866 23.9697C26.4504 24.2646 26.3167 24.539 26.1067 24.7493L24.7494 26.1066C24.5391 26.3166 24.2647 26.4503 23.9697 26.4866C23.6748 26.5228 23.3762 26.4595 23.1214 26.3066L20.6774 24.84C20.1262 25.1333 19.5485 25.3733 18.944 25.56L18.252 28.324C18.1798 28.6123 18.0133 28.8682 17.779 29.0511C17.5446 29.234 17.2559 29.3333 16.9587 29.3333H15.0414C14.7441 29.3333 14.4554 29.234 14.2211 29.0511C13.9868 28.8682 13.8202 28.6123 13.748 28.324L13.056 25.56C12.4569 25.3748 11.8766 25.1338 11.3227 24.84L8.87869 26.3066C8.62384 26.4595 8.32524 26.5228 8.0303 26.4866C7.73535 26.4503 7.46095 26.3166 7.25069 26.1066L5.89335 24.7493C5.68336 24.539 5.54964 24.2646 5.5134 23.9697C5.47717 23.6747 5.5405 23.3761 5.69335 23.1213L7.16002 20.6773C6.86621 20.1234 6.62515 19.543 6.44002 18.944L3.67602 18.252C3.38791 18.1798 3.13215 18.0135 2.9493 17.7794C2.76646 17.5454 2.66699 17.257 2.66669 16.96V15.0426C2.66669 14.7454 2.76602 14.4567 2.94889 14.2223C3.13177 13.988 3.38769 13.8215 3.67602 13.7493L6.44002 13.0573C6.62669 12.4528 6.86669 11.8751 7.16002 11.324L5.69335 8.87996C5.5405 8.62512 5.47717 8.32652 5.5134 8.03157C5.54964 7.73662 5.68336 7.46223 5.89335 7.25196L7.25069 5.89329C7.46095 5.6833 7.73535 5.54957 8.0303 5.51334C8.32524 5.47711 8.62384 5.54044 8.87869 5.69329L11.3227 7.15996C11.8738 6.86663 12.4516 6.62663 13.056 6.43996L13.748 3.67596C13.8202 3.38785 13.9865 3.13209 14.2206 2.94924C14.4546 2.7664 14.743 2.66693 15.04 2.66663H16.9574C17.2546 2.66663 17.5433 2.76596 17.7776 2.94883C18.012 3.1317 18.1785 3.38763 18.2507 3.67596L18.9427 6.43996C19.5471 6.62663 20.1249 6.86663 20.676 7.15996H20.6774ZM16 19.7333C16.9902 19.7333 17.9398 19.34 18.6399 18.6398C19.34 17.9397 19.7334 16.9901 19.7334 16C19.7334 15.0098 19.34 14.0602 18.6399 13.3601C17.9398 12.66 16.9902 12.2666 16 12.2666C15.0099 12.2666 14.0603 12.66 13.3602 13.3601C12.66 14.0602 12.2667 15.0098 12.2667 16C12.2667 16.9901 12.66 17.9397 13.3602 18.6398C14.0603 19.34 15.0099 19.7333 16 19.7333ZM16 21.3333C14.5855 21.3333 13.229 20.7714 12.2288 19.7712C11.2286 18.771 10.6667 17.4144 10.6667 16C10.6667 14.5855 11.2286 13.2289 12.2288 12.2287C13.229 11.2285 14.5855 10.6666 16 10.6666C17.4145 10.6666 18.7711 11.2285 19.7713 12.2287C20.7715 13.2289 21.3334 14.5855 21.3334 16C21.3334 17.4144 20.7715 18.771 19.7713 19.7712C18.7711 20.7714 17.4145 21.3333 16 21.3333Z" fill="#ECF0F1"/>
</svg>
