<svg width="32" height="32" viewBox="0 0 32 32" fill="none" xmlns="http://www.w3.org/2000/svg">
<path d="M31.7875 13.4888L28.5975 7.10627C28.48 6.87136 28.3173 6.66189 28.1189 6.48983C27.9204 6.31778 27.69 6.1865 27.4408 6.10351C27.1915 6.02052 26.9284 5.98743 26.6664 6.00613C26.4044 6.02484 26.1487 6.09497 25.9138 6.21252L22.805 7.76627L16.2563 6.03377C16.0882 5.99004 15.9118 5.99004 15.7438 6.03377L9.19501 7.76627L6.08626 6.21252C5.85136 6.09497 5.5956 6.02484 5.3336 6.00613C5.0716 5.98743 4.80847 6.02052 4.55926 6.10351C4.31004 6.1865 4.07962 6.31778 3.88114 6.48983C3.68266 6.66189 3.52002 6.87136 3.40251 7.10627L0.212506 13.4875C0.0949514 13.7224 0.0248192 13.9782 0.00611481 14.2402C-0.0125896 14.5022 0.0205002 14.7653 0.103494 15.0145C0.186489 15.2637 0.317762 15.4942 0.489817 15.6926C0.661872 15.8911 0.871339 16.0538 1.10626 16.1713L4.48126 17.86L11.4175 22.8138C11.5198 22.8864 11.6346 22.9394 11.7563 22.97L19.7563 24.97C19.9238 25.012 20.0994 25.0099 20.2658 24.9639C20.4323 24.9179 20.5841 24.8296 20.7063 24.7075L27.59 17.8225L30.8925 16.1713C31.3666 15.9339 31.7271 15.5181 31.8947 15.015C32.0623 14.512 32.0233 13.963 31.7863 13.4888H31.7875ZM24.9263 17.66L20.625 14.215C20.4323 14.0607 20.1894 13.9831 19.9429 13.9972C19.6964 14.0113 19.4639 14.116 19.29 14.2913C17.0638 16.5338 14.5825 16.25 13 15.25L18.405 10H22.3813L25.7825 16.8013L24.9263 17.66ZM5.19126 8.00002L7.75001 9.27752L4.55376 15.6588L2.00001 14.3825L5.19126 8.00002ZM19.6913 22.8913L12.4275 21.0763L6.27751 16.6838L9.77751 9.68377L16 8.03502L17.225 8.35877L11.6 13.8188L11.59 13.83C11.3783 14.0418 11.2168 14.2984 11.1174 14.5808C11.0181 14.8633 10.9835 15.1645 11.0161 15.4622C11.0488 15.7599 11.1478 16.0464 11.306 16.3007C11.4642 16.5549 11.6774 16.7704 11.93 16.9313C14.5 18.5725 17.6013 18.3063 20.0438 16.3063L23.5 19.0825L19.6913 22.8913ZM27.4413 15.6575L24.2513 9.28252L26.8088 8.00002L30 14.3825L27.4413 15.6575ZM16.4725 27.2413C16.4185 27.4574 16.2938 27.6493 16.1183 27.7865C15.9428 27.9238 15.7265 27.9985 15.5038 27.9988C15.4216 27.9988 15.3397 27.9888 15.26 27.9688L10.0513 26.6663C9.92944 26.6362 9.81447 26.5832 9.71251 26.51L6.41876 24.1575C6.21623 23.9985 6.08285 23.7675 6.04639 23.5126C6.00992 23.2577 6.07318 22.9986 6.223 22.7892C6.37281 22.5797 6.59763 22.4362 6.85065 22.3884C7.10366 22.3406 7.36536 22.3922 7.58126 22.5325L10.72 24.775L15.75 26.03C16.0072 26.0944 16.2284 26.2583 16.3648 26.4856C16.5012 26.713 16.5418 26.9853 16.4775 27.2425L16.4725 27.2413Z" fill="#ECF0F1"/>
</svg>
