<svg width="18" height="18" viewBox="0 0 18 18" fill="none" xmlns="http://www.w3.org/2000/svg">
<path d="M4.5 15C4.91667 15 5.271 14.8543 5.563 14.563C5.855 14.2717 6.00067 13.9173 6 13.5C5.99933 13.0827 5.85367 12.7287 5.563 12.438C5.27233 12.1473 4.918 12.0013 4.5 12C4.082 11.9987 3.728 12.1447 3.438 12.438C3.148 12.7313 3.002 13.0853 3 13.5C2.998 13.9147 3.144 14.269 3.438 14.563C3.732 14.857 4.086 15.0027 4.5 15ZM4.5 6C4.91667 6 5.271 5.85433 5.563 5.563C5.855 5.27167 6.00067 4.91733 6 4.5C5.99933 4.08267 5.85367 3.72867 5.563 3.438C5.27233 3.14733 4.918 3.00133 4.5 3C4.082 2.99867 3.728 3.14467 3.438 3.438C3.148 3.73133 3.002 4.08533 3 4.5C2.998 4.91467 3.144 5.269 3.438 5.563C3.732 5.857 4.086 6.00267 4.5 6ZM9 10.5C9.41667 10.5 9.771 10.3543 10.063 10.063C10.355 9.77167 10.5007 9.41733 10.5 9C10.4993 8.58267 10.3537 8.22867 10.063 7.938C9.77233 7.64733 9.418 7.50133 9 7.5C8.582 7.49867 8.228 7.64467 7.938 7.938C7.648 8.23133 7.502 8.58533 7.5 9C7.498 9.41467 7.644 9.769 7.938 10.063C8.232 10.357 8.586 10.5027 9 10.5ZM13.5 15C13.9167 15 14.271 14.8543 14.563 14.563C14.855 14.2717 15.0007 13.9173 15 13.5C14.9993 13.0827 14.8537 12.7287 14.563 12.438C14.2723 12.1473 13.918 12.0013 13.5 12C13.082 11.9987 12.728 12.1447 12.438 12.438C12.148 12.7313 12.002 13.0853 12 13.5C11.998 13.9147 12.144 14.269 12.438 14.563C12.732 14.857 13.086 15.0027 13.5 15ZM13.5 6C13.9167 6 14.271 5.85433 14.563 5.563C14.855 5.27167 15.0007 4.91733 15 4.5C14.9993 4.08267 14.8537 3.72867 14.563 3.438C14.2723 3.14733 13.918 3.00133 13.5 3C13.082 2.99867 12.728 3.14467 12.438 3.438C12.148 3.73133 12.002 4.08533 12 4.5C11.998 4.91467 12.144 5.269 12.438 5.563C12.732 5.857 13.086 6.00267 13.5 6ZM2 18C1.45 18 0.979333 17.8043 0.588 17.413C0.196667 17.0217 0.000666667 16.5507 0 16V2C0 1.45 0.196 0.979333 0.588 0.588C0.98 0.196667 1.45067 0.000666667 2 0H16C16.55 0 17.021 0.196 17.413 0.588C17.805 0.98 18.0007 1.45067 18 2V16C18 16.55 17.8043 17.021 17.413 17.413C17.0217 17.805 16.5507 18.0007 16 18H2ZM2 16H16V2H2V16Z" fill="#ECF0F1"/>
</svg>
