<svg width="32" height="32" viewBox="0 0 32 32" fill="none" xmlns="http://www.w3.org/2000/svg">
<path d="M14.278 12.3887C13.7006 12.6645 13.1977 13.0748 12.8117 13.5851C12.4257 14.0955 12.1677 14.691 12.0595 15.3217C11.9513 15.9524 11.996 16.5999 12.1898 17.2098C12.3836 17.8196 12.721 18.3741 13.1735 18.8266C13.626 19.2791 14.1804 19.6164 14.7903 19.8102C15.4001 20.0041 16.0476 20.0488 16.6783 19.9405C17.309 19.8323 17.9045 19.5744 18.4149 19.1883C18.9253 18.8023 19.3356 18.2995 19.6114 17.722" stroke="#ECF0F1" stroke-width="2.66667" stroke-linecap="round" stroke-linejoin="round"/>
<path d="M18.8534 7.81334C17.96 7.50334 17 7.33334 16 7.33334C11.2134 7.33334 7.33337 11.2133 7.33337 16C7.33337 20.7867 11.2134 24.6667 16 24.6667C20.7867 24.6667 24.6667 20.7867 24.6667 16C24.6667 15 24.4974 14.04 24.1867 13.1467" stroke="#ECF0F1" stroke-width="2.66667" stroke-linecap="round" stroke-linejoin="round"/>
<path d="M22.3787 4.28867C20.4225 3.2208 18.2287 2.66296 16 2.66667C8.63602 2.66667 2.66669 8.636 2.66669 16C2.66669 23.364 8.63602 29.3333 16 29.3333C23.364 29.3333 29.3334 23.364 29.3334 16C29.3372 13.7716 28.7796 11.5781 27.712 9.622M29.3334 2.66667L16 16" stroke="#ECF0F1" stroke-width="2.66667" stroke-linecap="round" stroke-linejoin="round"/>
</svg>
