<svg width="24" height="24" viewBox="0 0 24 24" fill="none" xmlns="http://www.w3.org/2000/svg">
<path d="M12.252 19.054C12.8849 19.0104 13.5125 18.9086 14.127 18.7498C14.886 18.9796 15.687 19.0316 16.469 18.9019C16.5002 18.8981 16.5316 18.8957 16.563 18.8949C16.842 18.8949 17.208 19.056 17.742 19.3955V18.8374C17.7422 18.7402 17.7683 18.6448 17.8176 18.5612C17.8668 18.4776 17.9374 18.4088 18.022 18.362C18.2547 18.2297 18.4697 18.0809 18.667 17.9157C19.445 17.2609 19.884 16.3865 19.884 15.4618C19.884 15.1565 19.836 14.8523 19.741 14.5622C19.977 14.125 20.165 13.6687 20.305 13.1932C20.755 13.8631 20.997 14.6539 21 15.4618C21 16.719 20.412 17.8915 19.393 18.7488C19.2223 18.8918 19.044 19.0235 18.858 19.1437V20.4512C18.858 20.9005 18.336 21.1594 17.968 20.8914C17.6193 20.633 17.2589 20.391 16.888 20.1661C16.7808 20.1039 16.67 20.0484 16.556 19.9999C16.2464 20.0461 15.9339 20.0693 15.621 20.0694C14.351 20.0694 13.177 19.6897 12.252 19.054ZM5.531 16.4399C3.927 15.087 3 13.2425 3 11.2661C3 7.22859 6.832 4 11.511 4C16.191 4 20.024 7.22759 20.024 11.2661C20.024 15.3036 16.191 18.5312 11.511 18.5312C10.985 18.5312 10.4667 18.4909 9.956 18.4103C9.736 18.4617 8.854 18.9825 7.584 19.9042C7.124 20.2387 6.472 19.9163 6.472 19.3532V17.1239C6.14262 16.9188 5.82846 16.6899 5.532 16.4389M9.987 17.0353C10.0257 17.0353 10.0647 17.0383 10.104 17.0443C10.564 17.1209 11.033 17.1595 11.511 17.1602C15.464 17.1602 18.627 14.4957 18.627 11.2651C18.627 8.03549 15.464 5.37102 11.512 5.37102C7.56 5.37102 4.395 8.03751 4.395 11.2661C4.395 12.8275 5.135 14.2983 6.441 15.3993C6.77033 15.676 7.129 15.9245 7.517 16.1448C7.62225 16.2036 7.71011 16.2895 7.7716 16.3938C7.83309 16.498 7.86601 16.6168 7.867 16.7381V18.0235C8.872 17.3536 9.533 17.0353 9.987 17.0353Z" fill="#ECF0F1"/>
<path d="M8.062 12C8.36037 12 8.64651 11.8815 8.85749 11.6705C9.06847 11.4595 9.187 11.1734 9.187 10.875C9.187 10.5766 9.06847 10.2905 8.85749 10.0795C8.64651 9.86853 8.36037 9.75 8.062 9.75C7.76363 9.75 7.47748 9.86853 7.2665 10.0795C7.05552 10.2905 6.937 10.5766 6.937 10.875C6.937 11.1734 7.05552 11.4595 7.2665 11.6705C7.47748 11.8815 7.76363 12 8.062 12ZM11.719 12C12.0174 12 12.3035 11.8815 12.5145 11.6705C12.7255 11.4595 12.844 11.1734 12.844 10.875C12.844 10.5766 12.7255 10.2905 12.5145 10.0795C12.3035 9.86853 12.0174 9.75 11.719 9.75C11.4206 9.75 11.1345 9.86853 10.9235 10.0795C10.7125 10.2905 10.594 10.5766 10.594 10.875C10.594 11.1734 10.7125 11.4595 10.9235 11.6705C11.1345 11.8815 11.4206 12 11.719 12ZM15.375 12C15.6734 12 15.9595 11.8815 16.1705 11.6705C16.3815 11.4595 16.5 11.1734 16.5 10.875C16.5 10.5766 16.3815 10.2905 16.1705 10.0795C15.9595 9.86853 15.6734 9.75 15.375 9.75C15.0766 9.75 14.7905 9.86853 14.5795 10.0795C14.3685 10.2905 14.25 10.5766 14.25 10.875C14.25 11.1734 14.3685 11.4595 14.5795 11.6705C14.7905 11.8815 15.0766 12 15.375 12Z" fill="#ECF0F1"/>
</svg>
