<svg width="24" height="23" viewBox="0 0 24 23" fill="none" xmlns="http://www.w3.org/2000/svg">
<path d="M0 22.7693V2.15467C0 1.54044 0.205778 1.028 0.617333 0.617333C1.02889 0.206667 1.54089 0.000888889 2.15333 0H21.8467C22.46 0 22.972 0.205778 23.3827 0.617333C23.7933 1.02889 23.9991 1.54133 24 2.15467V16.5133C24 17.1267 23.7942 17.6391 23.3827 18.0507C22.9711 18.4622 22.4591 18.6676 21.8467 18.6667H4.10267L0 22.7693ZM4.66667 14H14V12.6667H4.66667V14ZM4.66667 10H19.3333V8.66667H4.66667V10ZM4.66667 6H19.3333V4.66667H4.66667V6Z" fill="#ECF0F1"/>
</svg>
