<svg width="32" height="32" viewBox="0 0 32 32" fill="none" xmlns="http://www.w3.org/2000/svg">
<path d="M16 13.3333C21.3013 13.3333 26.6667 11.5013 26.6667 7.99999C26.6667 4.49866 21.3013 2.66666 16 2.66666C10.6987 2.66666 5.33333 4.49866 5.33333 7.99999C5.33333 11.5013 10.6987 13.3333 16 13.3333Z" fill="#ECF0F1"/>
<path d="M5.33333 13.3333C5.33333 16.8347 10.6987 18.6667 16 18.6667C21.3013 18.6667 26.6667 16.8347 26.6667 13.3333V10.6667C26.6667 14.168 21.3013 16 16 16C10.6987 16 5.33333 14.168 5.33333 10.6667V13.3333Z" fill="#ECF0F1"/>
<path d="M5.33333 18.6667C5.33333 22.168 10.6987 24 16 24C21.3013 24 26.6667 22.168 26.6667 18.6667V16C26.6667 19.5013 21.3013 21.3333 16 21.3333C10.6987 21.3333 5.33333 19.5013 5.33333 16V18.6667Z" fill="#ECF0F1"/>
<path d="M5.33333 24C5.33333 27.5013 10.6987 29.3333 16 29.3333C21.3013 29.3333 26.6667 27.5013 26.6667 24V21.3333C26.6667 24.8347 21.3013 26.6667 16 26.6667C10.6987 26.6667 5.33333 24.8347 5.33333 21.3333V24Z" fill="#ECF0F1"/>
</svg>
