<svg width="32" height="32" viewBox="0 0 32 32" fill="none" xmlns="http://www.w3.org/2000/svg">
<path d="M6.66667 6.66667V25.3333H25.3333V6.66667H6.66667ZM4 6.66667C4 5.95942 4.28095 5.28115 4.78105 4.78105C5.28115 4.28095 5.95942 4 6.66667 4H25.3333C26.0406 4 26.7189 4.28095 27.219 4.78105C27.719 5.28115 28 5.95942 28 6.66667V25.3333C28 26.0406 27.719 26.7189 27.219 27.219C26.7189 27.719 26.0406 28 25.3333 28H6.66667C5.95942 28 5.28115 27.719 4.78105 27.219C4.28095 26.7189 4 26.0406 4 25.3333V6.66667ZM20.6667 22.6667C21.1971 22.6667 21.7058 22.456 22.0809 22.0809C22.456 21.7058 22.6667 21.1971 22.6667 20.6667C22.6667 20.1362 22.456 19.6275 22.0809 19.2525C21.7058 18.8774 21.1971 18.6667 20.6667 18.6667C20.1362 18.6667 19.6275 18.8774 19.2525 19.2525C18.8774 19.6275 18.6667 20.1362 18.6667 20.6667C18.6667 21.1971 18.8774 21.7058 19.2525 22.0809C19.6275 22.456 20.1362 22.6667 20.6667 22.6667ZM13.3333 20.6667C13.3333 21.1971 13.1226 21.7058 12.7475 22.0809C12.3725 22.456 11.8638 22.6667 11.3333 22.6667C10.8029 22.6667 10.2942 22.456 9.91912 22.0809C9.54405 21.7058 9.33333 21.1971 9.33333 20.6667C9.33333 20.1362 9.54405 19.6275 9.91912 19.2525C10.2942 18.8774 10.8029 18.6667 11.3333 18.6667C11.8638 18.6667 12.3725 18.8774 12.7475 19.2525C13.1226 19.6275 13.3333 20.1362 13.3333 20.6667ZM11.3333 13.3333C11.8638 13.3333 12.3725 13.1226 12.7475 12.7475C13.1226 12.3725 13.3333 11.8638 13.3333 11.3333C13.3333 10.8029 13.1226 10.2942 12.7475 9.91912C12.3725 9.54405 11.8638 9.33333 11.3333 9.33333C10.8029 9.33333 10.2942 9.54405 9.91912 9.91912C9.54405 10.2942 9.33333 10.8029 9.33333 11.3333C9.33333 11.8638 9.54405 12.3725 9.91912 12.7475C10.2942 13.1226 10.8029 13.3333 11.3333 13.3333ZM22.6667 11.3333C22.6667 11.8638 22.456 12.3725 22.0809 12.7475C21.7058 13.1226 21.1971 13.3333 20.6667 13.3333C20.1362 13.3333 19.6275 13.1226 19.2525 12.7475C18.8774 12.3725 18.6667 11.8638 18.6667 11.3333C18.6667 10.8029 18.8774 10.2942 19.2525 9.91912C19.6275 9.54405 20.1362 9.33333 20.6667 9.33333C21.1971 9.33333 21.7058 9.54405 22.0809 9.91912C22.456 10.2942 22.6667 10.8029 22.6667 11.3333ZM16 18C16.5304 18 17.0391 17.7893 17.4142 17.4142C17.7893 17.0391 18 16.5304 18 16C18 15.4696 17.7893 14.9609 17.4142 14.5858C17.0391 14.2107 16.5304 14 16 14C15.4696 14 14.9609 14.2107 14.5858 14.5858C14.2107 14.9609 14 15.4696 14 16C14 16.5304 14.2107 17.0391 14.5858 17.4142C14.9609 17.7893 15.4696 18 16 18Z" fill="#ECF0F1"/>
</svg>
