<?xml version="1.0" encoding="UTF-8"?>
<svg version="1.1" xmlns="http://www.w3.org/2000/svg" width="100" height="100">
<path d="M0 0 C10.05294404 7.42083876 16.46072903 16.33460649 19.4375 28.45703125 C20.65075412 42.16962431 18.39081065 53.61776824 9.4375 64.45703125 C0.29318761 73.9915462 -9.22611741 78.44067649 -22.4375 78.76953125 C-34.47649669 78.55134048 -44.52199664 74.40350192 -53.375 66.14453125 C-56.93560463 62.33258982 -59.37061984 58.16997504 -61.5625 53.45703125 C-61.88347656 52.79316406 -62.20445313 52.12929687 -62.53515625 51.4453125 C-66.61628303 41.47977035 -65.70288967 29.01859292 -61.88671875 19.13671875 C-56.12772027 7.48281623 -46.55032617 -0.03822662 -34.5625 -4.54296875 C-23.66203255 -8.07157368 -9.62586593 -5.79606256 0 0 Z " fill="#F5BE00" transform="translate(72.5625,13.54296875)"/>
<path d="M0 0 C10.05294404 7.42083876 16.46072903 16.33460649 19.4375 28.45703125 C20.65075412 42.16962431 18.39081065 53.61776824 9.4375 64.45703125 C0.29318761 73.9915462 -9.22611741 78.44067649 -22.4375 78.76953125 C-34.47649669 78.55134048 -44.52199664 74.40350192 -53.375 66.14453125 C-56.93560463 62.33258982 -59.37061984 58.16997504 -61.5625 53.45703125 C-61.88347656 52.79316406 -62.20445313 52.12929687 -62.53515625 51.4453125 C-66.61628303 41.47977035 -65.70288967 29.01859292 -61.88671875 19.13671875 C-56.12772027 7.48281623 -46.55032617 -0.03822662 -34.5625 -4.54296875 C-23.66203255 -8.07157368 -9.62586593 -5.79606256 0 0 Z M-50.5625 14.45703125 C-57.57183051 23.5018582 -58.72146635 33.3349214 -57.5625 44.45703125 C-56.68720002 48.11436575 -55.41082963 51.19063888 -53.5625 54.45703125 C-53.20027344 55.10027344 -52.83804688 55.74351563 -52.46484375 56.40625 C-48.05173567 63.30266635 -40.32344359 69.02700979 -32.359375 71.00390625 C-20.6254667 72.9049305 -11.6051978 72.04163028 -1.5625 65.45703125 C-0.94890625 65.07417969 -0.3353125 64.69132812 0.296875 64.296875 C6.13832274 60.09645253 10.28924997 52.21568088 12.4375 45.45703125 C13.58190194 33.78413146 12.62507344 23.6547894 5.5625 13.85546875 C-0.68668162 6.80216449 -8.8918876 1.93556394 -18.265625 1.14453125 C-32.19828985 0.54495628 -41.00033261 4.14755416 -50.5625 14.45703125 Z " fill="#FED600" transform="translate(72.5625,13.54296875)"/>
<path d="M0 0 C0.66 0 1.32 0 2 0 C2.33 1.32 2.66 2.64 3 4 C5.31 4.66 7.62 5.32 10 6 C10 7.65 10 9.3 10 11 C5.71 11 1.42 11 -3 11 C-3 12.32 -3 13.64 -3 15 C-2.08476563 15.47050781 -1.16953125 15.94101562 -0.2265625 16.42578125 C0.97416738 17.05428829 2.1746768 17.68321663 3.375 18.3125 C3.97828125 18.62123047 4.5815625 18.92996094 5.203125 19.24804688 C8.38258325 20.92609428 9.96537552 21.94806328 12 25 C11.8882584 32.03972065 11.8882584 32.03972065 8.6875 35.5 C6 37 6 37 2 37 C2 38.65 2 40.3 2 42 C1.34 42 0.68 42 0 42 C0 40.35 0 38.7 0 37 C-0.928125 37.04125 -1.85625 37.0825 -2.8125 37.125 C-6 37 -6 37 -9 35 C-9 33.35 -9 31.7 -9 30 C-4.71 30.33 -0.42 30.66 4 31 C4.33 29.68 4.66 28.36 5 27 C4.08476563 26.54109375 3.16953125 26.0821875 2.2265625 25.609375 C1.0257266 24.99019399 -0.17477708 24.37036838 -1.375 23.75 C-1.97828125 23.44964844 -2.5815625 23.14929688 -3.203125 22.83984375 C-6.6454833 21.04216775 -8.80937401 19.7842189 -10 16 C-10.4375 13.0625 -10.4375 13.0625 -10 10 C-7.75407292 7.19259115 -6.10532787 5.38835844 -2.6875 4.1875 C-2.130625 4.125625 -1.57375 4.06375 -1 4 C-0.67 2.68 -0.34 1.36 0 0 Z " fill="#FDDF17" transform="translate(49,29)"/>
</svg>
