<svg width="32" height="32" viewBox="0 0 32 32" fill="#ECF0F1" xmlns="http://www.w3.org/2000/svg">
<path d="M15.0765 25.5974L15.0743 25.5955C11.6115 22.4554 8.85819 19.9515 6.95308 17.6207C5.06446 15.3101 4.16669 13.3535 4.16669 11.3333C4.16669 8.04355 6.71999 5.5 10 5.5C11.8666 5.5 13.6829 6.37669 14.8618 7.75026L16 9.07648L17.1383 7.75026C18.3172 6.37669 20.1335 5.5 22 5.5C25.28 5.5 27.8334 8.04355 27.8334 11.3333C27.8334 13.3535 26.9356 15.3101 25.047 17.6207C23.1418 19.9515 20.3886 22.4554 16.9257 25.5955L16.9236 25.5975L16 26.4382L15.0765 25.5974Z" stroke="#ECF0F1" stroke-width="3"/>
</svg>
