<svg width="48" height="48" viewBox="0 0 48 48" fill="none" xmlns="http://www.w3.org/2000/svg">
<path d="M33 21.7505H28.5C27.9033 21.7505 27.331 21.5134 26.909 21.0915C26.487 20.6695 26.25 20.0972 26.25 19.5005C26.25 18.9038 26.487 18.3315 26.909 17.9095C27.331 17.4875 27.9033 17.2505 28.5 17.2505H33C33.5967 17.2505 34.169 17.4875 34.591 17.9095C35.0129 18.3315 35.25 18.9038 35.25 19.5005C35.25 20.0972 35.0129 20.6695 34.591 21.0915C34.169 21.5134 33.5967 21.7505 33 21.7505ZM19.5 17.2505H18.75V16.5005C18.75 15.9038 18.5129 15.3315 18.091 14.9095C17.669 14.4875 17.0967 14.2505 16.5 14.2505C15.9033 14.2505 15.331 14.4875 14.909 14.9095C14.487 15.3315 14.25 15.9038 14.25 16.5005V17.2505H13.5C12.9033 17.2505 12.331 17.4875 11.909 17.9095C11.487 18.3315 11.25 18.9038 11.25 19.5005C11.25 20.0972 11.487 20.6695 11.909 21.0915C12.331 21.5134 12.9033 21.7505 13.5 21.7505H14.25V22.5005C14.25 23.0972 14.487 23.6695 14.909 24.0915C15.331 24.5134 15.9033 24.7505 16.5 24.7505C17.0967 24.7505 17.669 24.5134 18.091 24.0915C18.5129 23.6695 18.75 23.0972 18.75 22.5005V21.7505H19.5C20.0967 21.7505 20.669 21.5134 21.091 21.0915C21.5129 20.6695 21.75 20.0972 21.75 19.5005C21.75 18.9038 21.5129 18.3315 21.091 17.9095C20.669 17.4875 20.0967 17.2505 19.5 17.2505ZM45.8925 38.0517C45.2644 38.9474 44.4479 39.6948 43.5003 40.2415C42.5528 40.7882 41.4971 41.1211 40.4073 41.2167C39.3176 41.3122 38.2201 41.1683 37.1918 40.7948C36.1636 40.4214 35.2294 39.8275 34.455 39.0549C34.42 39.0217 34.3868 38.9867 34.3556 38.9499L27.1256 30.7505H20.8744L13.6519 38.9499C13.62 38.9855 13.5862 39.0211 13.5525 39.0549C12.4243 40.1816 10.9664 40.9195 9.39034 41.1614C7.81431 41.4033 6.2022 41.1366 4.78803 40.4C3.37386 39.6635 2.23124 38.4954 1.52602 37.0653C0.820797 35.6353 0.589689 34.0177 0.866241 32.4474C0.864988 32.4349 0.864988 32.4223 0.866241 32.4099L3.93749 16.6486C4.4262 13.8763 5.87578 11.3647 8.03178 9.55466C10.1878 7.74462 12.9124 6.75181 15.7275 6.75049H32.25C35.0563 6.75449 37.7727 7.74071 39.928 9.53806C42.0832 11.3354 43.5414 13.8305 44.0494 16.5905C44.0499 16.6024 44.0499 16.6142 44.0494 16.6261L47.1169 32.408C47.1175 32.4205 47.1175 32.433 47.1169 32.4455C47.2935 33.4145 47.2762 34.4089 47.066 35.3712C46.8559 36.3335 46.457 37.2446 45.8925 38.0517ZM32.25 26.2505C34.2391 26.2505 36.1468 25.4603 37.5533 24.0538C38.9598 22.6473 39.75 20.7396 39.75 18.7505C39.75 16.7614 38.9598 14.8537 37.5533 13.4472C36.1468 12.0407 34.2391 11.2505 32.25 11.2505H15.7294C13.9689 11.2522 12.2654 11.8748 10.9186 13.0086C9.57183 14.1424 8.66804 15.7148 8.36624 17.4492C8.36555 17.4624 8.36555 17.4755 8.36624 17.4886L5.30249 33.2386C5.16961 34.02 5.35139 34.8223 5.8081 35.4701C6.26482 36.118 6.95935 36.5587 7.73999 36.6961C8.20472 36.7772 8.68198 36.7479 9.13335 36.6108C9.58473 36.4737 9.9976 36.2326 10.3387 35.9067L18.1687 27.0136C18.3798 26.774 18.6394 26.5819 18.9303 26.4504C19.2213 26.3188 19.5369 26.2507 19.8562 26.2505H32.25ZM42.705 33.2461L41.3925 26.5055C40.3602 27.7262 39.0939 28.7277 37.6683 29.451C36.2426 30.1742 34.6866 30.6046 33.0919 30.7167L37.6687 35.9142C38.1242 36.3512 38.7059 36.6334 39.331 36.7206C39.9561 36.8078 40.5928 36.6957 41.1505 36.4001C41.7082 36.1046 42.1584 35.6406 42.4372 35.0744C42.7159 34.5081 42.809 33.8683 42.7031 33.2461H42.705Z" fill="#00DD25"/>
</svg>
