<svg width="30" height="22" viewBox="0 0 30 22" fill="none" xmlns="http://www.w3.org/2000/svg">
<path d="M21 8.75H18C17.8011 8.75 17.6103 8.67098 17.4697 8.53033C17.329 8.38968 17.25 8.19891 17.25 8C17.25 7.80109 17.329 7.61032 17.4697 7.46967C17.6103 7.32902 17.8011 7.25 18 7.25H21C21.1989 7.25 21.3897 7.32902 21.5303 7.46967C21.671 7.61032 21.75 7.80109 21.75 8C21.75 8.19891 21.671 8.38968 21.5303 8.53033C21.3897 8.67098 21.1989 8.75 21 8.75ZM12 7.25H10.75V6C10.75 5.80109 10.671 5.61032 10.5303 5.46967C10.3897 5.32902 10.1989 5.25 10 5.25C9.80109 5.25 9.61033 5.32902 9.46968 5.46967C9.32902 5.61032 9.25001 5.80109 9.25001 6V7.25H8.00001C7.80109 7.25 7.61033 7.32902 7.46968 7.46967C7.32902 7.61032 7.25001 7.80109 7.25001 8C7.25001 8.19891 7.32902 8.38968 7.46968 8.53033C7.61033 8.67098 7.80109 8.75 8.00001 8.75H9.25001V10C9.25001 10.1989 9.32902 10.3897 9.46968 10.5303C9.61033 10.671 9.80109 10.75 10 10.75C10.1989 10.75 10.3897 10.671 10.5303 10.5303C10.671 10.3897 10.75 10.1989 10.75 10V8.75H12C12.1989 8.75 12.3897 8.67098 12.5303 8.53033C12.671 8.38968 12.75 8.19891 12.75 8C12.75 7.80109 12.671 7.61032 12.5303 7.46967C12.3897 7.32902 12.1989 7.25 12 7.25ZM28.98 19.9375C28.5883 20.497 28.0675 20.9539 27.4617 21.2694C26.8559 21.5849 26.183 21.7498 25.5 21.75C24.3751 21.7475 23.2967 21.3005 22.5 20.5063L22.4675 20.4713L17.4225 14.75H12.5775L7.53876 20.47L7.50001 20.5C6.7051 21.2977 5.62612 21.7472 4.50001 21.75C3.87958 21.7496 3.26676 21.6133 2.7046 21.3508C2.14245 21.0883 1.64458 20.7059 1.24598 20.2305C0.847371 19.755 0.557695 19.1981 0.397295 18.5988C0.236895 17.9994 0.209661 17.3722 0.317506 16.7612C0.317506 16.7612 0.317506 16.7537 0.317506 16.7488L2.36251 6.235C2.65673 4.55904 3.53216 3.04038 4.83498 1.94582C6.1378 0.851259 7.78467 0.250823 9.48626 0.25H20.5C22.1972 0.252158 23.84 0.848957 25.1428 1.93666C26.4456 3.02437 27.3261 4.53421 27.6313 6.20375V6.2275L29.6825 16.75V16.7638C29.7811 17.3129 29.7698 17.8762 29.6492 18.421C29.5286 18.9658 29.3012 19.4812 28.98 19.9375ZM20.5 13.25C22.025 13.25 23.4875 12.6442 24.5659 11.5659C25.6442 10.4875 26.25 9.02499 26.25 7.5C26.25 5.97501 25.6442 4.51247 24.5659 3.43414C23.4875 2.3558 22.025 1.75 20.5 1.75H9.48626C8.13657 1.75103 6.83045 2.22784 5.79754 3.0966C4.76463 3.96536 4.07105 5.17046 3.83876 6.5C3.83823 6.50415 3.83823 6.50835 3.83876 6.5125L1.79126 17.0287C1.69131 17.6027 1.7762 18.1935 2.03367 18.716C2.29115 19.2386 2.70791 19.6659 3.22387 19.9363C3.73984 20.2067 4.32835 20.3063 4.90457 20.2207C5.48078 20.1351 6.01493 19.8687 6.43001 19.46L11.68 13.5037C11.7507 13.4247 11.8375 13.3615 11.9344 13.3184C12.0314 13.2753 12.1364 13.2533 12.2425 13.2537L20.5 13.25ZM28.2088 17.0287L26.985 10.735C26.3832 11.9401 25.4578 12.954 24.3125 13.6631C23.1671 14.3722 21.8471 14.7485 20.5 14.75H19.4213L23.57 19.46C23.9851 19.8687 24.5192 20.1351 25.0954 20.2207C25.6717 20.3063 26.2602 20.2067 26.7761 19.9363C27.2921 19.6659 27.7089 19.2386 27.9663 18.716C28.2238 18.1935 28.3087 17.6027 28.2088 17.0287Z" fill="#ECF0F1"/>
</svg>
