<svg width="25" height="24" viewBox="0 0 25 24" fill="none" xmlns="http://www.w3.org/2000/svg">
<path d="M8.86055 0.789375C6.46258 1.62125 4.39457 3.20019 2.96029 5.29425C1.526 7.38832 0.801037 9.88715 0.891883 12.4237C0.982728 14.9602 1.88459 17.4008 3.46501 19.3869C5.04543 21.373 7.22109 22.7999 9.67243 23.4581C11.6598 23.9709 13.7419 23.9935 15.7399 23.5238C17.5499 23.1172 19.2233 22.2476 20.5962 21C22.0251 19.6619 23.0622 17.9596 23.5962 16.0763C24.1765 14.0281 24.2798 11.8742 23.8981 9.78H12.7381V14.4094H19.2012C19.072 15.1477 18.7952 15.8524 18.3873 16.4813C17.9795 17.1102 17.4489 17.6503 16.8274 18.0694C16.0382 18.5914 15.1485 18.9427 14.2156 19.1006C13.2798 19.2746 12.32 19.2746 11.3843 19.1006C10.4359 18.9045 9.53874 18.5131 8.74993 17.9513C7.48271 17.0542 6.5312 15.7799 6.03118 14.31C5.52271 12.8126 5.52271 11.1893 6.03118 9.69188C6.3871 8.64228 6.97549 7.68663 7.75243 6.89625C8.64154 5.97515 9.76718 5.31674 11.0058 4.99327C12.2445 4.66979 13.5484 4.69375 14.7743 5.0625C15.732 5.35648 16.6078 5.87013 17.3318 6.5625C18.0606 5.8375 18.7881 5.11063 19.5143 4.38188C19.8893 3.99 20.2981 3.61688 20.6674 3.21563C19.5622 2.18714 18.265 1.38686 16.8499 0.860625C14.2731 -0.0750188 11.4536 -0.100163 8.86055 0.789375Z" fill="white"/>
<path d="M8.8607 0.789375C11.4536 -0.100768 14.2731 -0.0762857 16.8501 0.85875C18.2654 1.38856 19.562 2.1927 20.6657 3.225C20.2907 3.62625 19.8951 4.00125 19.5126 4.39125C18.7851 5.1175 18.0582 5.84125 17.332 6.5625C16.6079 5.87013 15.7321 5.35648 14.7745 5.0625C13.5489 4.69245 12.2451 4.66711 11.0061 4.98927C9.76712 5.31142 8.64079 5.96862 7.7507 6.88875C6.97377 7.67913 6.38538 8.63478 6.02945 9.68437L2.14258 6.675C3.53384 3.91605 5.94273 1.80567 8.8607 0.789375Z" fill="#E33629"/>
<path d="M1.1114 9.65625C1.32032 8.62086 1.66716 7.61817 2.14265 6.675L6.02953 9.69187C5.52105 11.1893 5.52105 12.8126 6.02953 14.31C4.73453 15.31 3.4389 16.315 2.14265 17.325C0.952308 14.9556 0.589275 12.2559 1.1114 9.65625Z" fill="#F8BD00"/>
<path d="M12.7381 9.77813H23.8981C24.2799 11.8724 24.1766 14.0263 23.5963 16.0744C23.0623 17.9578 22.0252 19.66 20.5963 20.9981C19.3419 20.0194 18.0819 19.0481 16.8275 18.0694C17.4494 17.6499 17.9802 17.1092 18.3881 16.4796C18.796 15.8501 19.0726 15.1446 19.2013 14.4056H12.7381C12.7363 12.8644 12.7381 11.3213 12.7381 9.77813Z" fill="#587DBD"/>
<path d="M2.14062 17.325C3.43687 16.325 4.7325 15.32 6.0275 14.31C6.52851 15.7804 7.48138 17.0548 8.75 17.9512C9.54127 18.5105 10.4404 18.8987 11.39 19.0912C12.3257 19.2652 13.2855 19.2652 14.2213 19.0912C15.1542 18.9333 16.0439 18.5821 16.8331 18.06C18.0875 19.0387 19.3475 20.01 20.6019 20.9887C19.2292 22.237 17.5558 23.1073 15.7456 23.5144C13.7476 23.9841 11.6655 23.9616 9.67813 23.4487C8.10632 23.0291 6.63814 22.2892 5.36563 21.2756C4.01874 20.2063 2.91867 18.8587 2.14062 17.325Z" fill="#319F43"/>
</svg>
