<svg width="32" height="32" viewBox="0 0 32 32" fill="none" xmlns="http://www.w3.org/2000/svg">
<path d="M23.5466 14.9333C23.2399 14.5333 22.8666 14.1867 22.5199 13.84C21.6266 13.04 20.6133 12.4667 19.7599 11.6267C17.7733 9.68 17.3333 6.46667 18.5999 4C17.3333 4.30667 16.2266 5 15.2799 5.76C11.8266 8.53333 10.4666 13.4267 12.0933 17.6267C12.1466 17.76 12.1999 17.8933 12.1999 18.0667C12.1999 18.36 11.9999 18.6267 11.7333 18.7333C11.4266 18.8667 11.1066 18.7867 10.8533 18.5733C10.7776 18.5099 10.7143 18.4331 10.6666 18.3467C9.15994 16.44 8.91994 13.7067 9.93328 11.52C7.70661 13.3333 6.49328 16.4 6.66661 19.2933C6.74661 19.96 6.82661 20.6267 7.05328 21.2933C7.23994 22.0933 7.59994 22.8933 7.99994 23.6C9.43994 25.9067 11.9333 27.56 14.6133 27.8933C17.4666 28.2533 20.5199 27.7333 22.7066 25.76C25.1466 23.5467 25.9999 20 24.7466 16.96L24.5733 16.6133C24.2933 16 23.5466 14.9333 23.5466 14.9333ZM19.3333 23.3333C18.9599 23.6533 18.3466 24 17.8666 24.1333C16.3733 24.6667 14.8799 23.92 13.9999 23.04C15.5866 22.6667 16.5333 21.4933 16.8133 20.3067C17.0399 19.24 16.6133 18.36 16.4399 17.3333C16.2799 16.3467 16.3066 15.5067 16.6666 14.5867C16.9199 15.0933 17.1866 15.6 17.5066 16C18.5333 17.3333 20.1466 17.92 20.4933 19.7333C20.5466 19.92 20.5733 20.1067 20.5733 20.3067C20.6133 21.4 20.1333 22.6 19.3333 23.3333Z" fill="#00DD25"/>
</svg>
