<svg width="32" height="32" viewBox="0 0 32 32" fill="none" xmlns="http://www.w3.org/2000/svg">
<path d="M16 29.3333C17.7512 29.3355 19.4857 28.9916 21.1036 28.3214C22.7216 27.6512 24.1912 26.6679 25.428 25.428C26.6679 24.1912 27.6512 22.7216 28.3214 21.1036C28.9916 19.4857 29.3355 17.7512 29.3333 16C29.3355 14.2487 28.9916 12.5143 28.3214 10.8963C27.6512 9.27834 26.6679 7.80875 25.428 6.57197C24.1912 5.33208 22.7216 4.34878 21.1036 3.67858C19.4857 3.00838 17.7512 2.66448 16 2.66664C14.2487 2.66448 12.5143 3.00838 10.8963 3.67858C9.27834 4.34878 7.80875 5.33208 6.57197 6.57197C5.33208 7.80875 4.34878 9.27834 3.67858 10.8963C3.00838 12.5143 2.66448 14.2487 2.66664 16C2.66448 17.7512 3.00838 19.4857 3.67858 21.1036C4.34878 22.7216 5.33208 24.1912 6.57197 25.428C7.80875 26.6679 9.27834 27.6512 10.8963 28.3214C12.5143 28.9916 14.2487 29.3355 16 29.3333Z" stroke="#ECF0F1" stroke-width="2.66667" stroke-linejoin="round"/>
<path d="M16 19.0833V16.4166C16.7911 16.4166 17.5645 16.182 18.2223 15.7425C18.8801 15.303 19.3928 14.6783 19.6955 13.9474C19.9983 13.2165 20.0775 12.4122 19.9231 11.6363C19.7688 10.8603 19.3878 10.1476 18.8284 9.5882C18.269 9.02879 17.5563 8.64783 16.7804 8.49349C16.0044 8.33915 15.2002 8.41836 14.4693 8.72111C13.7384 9.02386 13.1136 9.53655 12.6741 10.1943C12.2346 10.8521 12 11.6255 12 12.4166" stroke="#ECF0F1" stroke-width="2.66667" stroke-linecap="round" stroke-linejoin="round"/>
<path fill-rule="evenodd" clip-rule="evenodd" d="M16 25.0833C16.442 25.0833 16.8659 24.9077 17.1785 24.5952C17.4911 24.2826 17.6666 23.8587 17.6666 23.4167C17.6666 22.9746 17.4911 22.5507 17.1785 22.2382C16.8659 21.9256 16.442 21.75 16 21.75C15.558 21.75 15.134 21.9256 14.8215 22.2382C14.5089 22.5507 14.3333 22.9746 14.3333 23.4167C14.3333 23.8587 14.5089 24.2826 14.8215 24.5952C15.134 24.9077 15.558 25.0833 16 25.0833Z" fill="#ECF0F1"/>
</svg>
