<svg width="32" height="32" viewBox="0 0 32 32" fill="none" xmlns="http://www.w3.org/2000/svg">
<path d="M14.92 3C15.96 3.01333 16.9467 3.64 17.3333 4.66667L24 20.6C24.12 20.9467 24.1867 21.3333 24.1733 21.6667C24.1582 22.1817 23.9956 22.6815 23.7049 23.1069C23.4142 23.5323 23.0076 23.8654 22.5333 24.0667L12.7067 28.1333C12.36 28.2933 12 28.3333 11.6533 28.3333C11.1322 28.3218 10.6259 28.1578 10.197 27.8616C9.76803 27.5654 9.43534 27.1499 9.23999 26.6667L2.62666 10.7333C2.06666 9.38667 2.71999 7.82667 4.07999 7.26667L13.8933 3.2C14.2267 3.08 14.5733 3 14.92 3ZM19.56 3H21.4933C22.2006 3 22.8788 3.28095 23.3789 3.78105C23.879 4.28115 24.16 4.95942 24.16 5.66667V14.1333L19.56 3ZM26.84 5.05333L28.6267 5.81333C28.9501 5.94503 29.2444 6.13928 29.4926 6.38494C29.7408 6.6306 29.9381 6.92285 30.0731 7.24492C30.2081 7.56699 30.2782 7.91255 30.2794 8.26177C30.2806 8.611 30.2128 8.95702 30.08 9.28L26.84 17.0933V5.05333ZM14.92 5.62667L5.06666 9.72L11.6933 25.7333L21.56 21.6533L14.92 5.62667ZM11.5333 11.3867L15.84 14.6L15.2533 19.9467L10.9467 16.72L11.5333 11.3867Z" fill="#ECF0F1"/>
</svg>
