<svg width="24" height="24" viewBox="0 0 24 24" fill="none" xmlns="http://www.w3.org/2000/svg">
<path d="M22.6667 21.3333V9.99999C22.6667 9.793 22.6185 9.58885 22.5259 9.40371C22.4334 9.21857 22.299 9.05752 22.1334 8.93332L12.8 1.93332C12.5692 1.76023 12.2885 1.66666 12 1.66666C11.7115 1.66666 11.4308 1.76023 11.2 1.93332L1.86671 8.93332C1.70111 9.05752 1.56671 9.21857 1.47414 9.40371C1.38157 9.58885 1.33337 9.793 1.33337 9.99999V21.3333C1.33337 21.6869 1.47385 22.0261 1.7239 22.2761C1.97395 22.5262 2.31309 22.6667 2.66671 22.6667H8.00004C8.35366 22.6667 8.6928 22.5262 8.94285 22.2761C9.1929 22.0261 9.33337 21.6869 9.33337 21.3333V17.3333C9.33337 16.9797 9.47385 16.6406 9.7239 16.3905C9.97395 16.1405 10.3131 16 10.6667 16H13.3334C13.687 16 14.0261 16.1405 14.2762 16.3905C14.5262 16.6406 14.6667 16.9797 14.6667 17.3333V21.3333C14.6667 21.6869 14.8072 22.0261 15.0572 22.2761C15.3073 22.5262 15.6464 22.6667 16 22.6667H21.3334C21.687 22.6667 22.0261 22.5262 22.2762 22.2761C22.5262 22.0261 22.6667 21.6869 22.6667 21.3333Z" stroke="#CBCCD1" stroke-width="2.66667" stroke-linecap="round" stroke-linejoin="round"/>
</svg>
