<svg xmlns="http://www.w3.org/2000/svg" width="1208" height="474" fill="none"><g clip-path="url(#a)"><rect width="1208" height="474" fill="#151832" rx="8"/><g filter="url(#b)" opacity=".5"><path fill="#4285F4" fill-opacity=".35" d="M.597 474v-15.026c0-10.403-5.252-15.149 15.397-14.576 20.648.573 43.843 14.576 43.843 14.576s32.186-23.017 60.348-24.338c27.163-1.275 58.951 18.458 63.96 17.005 16.877-4.894 73.266-27.243 92.844-12.911s28.761 17.971 28.761 24.77 4.25 10.28 4.25 10.28z"/></g><g filter="url(#c)" opacity=".5"><path fill="#4285F4" fill-opacity=".35" d="M572.597 495S548 493.715 548 485c0-15.605 19.345-35.262 39.993-34.403s43.844 21.864 43.844 21.864 32.186-34.525 60.348-36.508c27.163-1.912 58.951 27.687 63.96 25.509 16.877-7.342 73.266-40.865 92.844-19.368S882 462.262 882 472.461v22.209z"/></g><g filter="url(#d)" opacity=".5"><path fill="#4285F4" fill-opacity=".35" d="M1119.96 617.011s-25.52 12.072-51.47-21.106c-46.46-59.406-87.938-147.585-67.17-158.553 20.76-10.968 103.76 52.997 103.76 52.997s-68.36-128.685-46.64-161.962c33-50.586 125.57 46.106 123.5 34.357-6.98-39.59-3.65-221.249 77.63-152.911 81.27 68.338 35.73 69.157 66.1 107.985l66.13 84.549z"/></g><g filter="url(#e)" opacity=".5"><path fill="#4285F4" fill-opacity=".36" d="M1012.16-10s-4.66 6.285-4.66 15c0 15.605 4.66 25.25 19.96 29.403 15.29 4.153 32.54-20.153 43.55-21.864 11.01-1.71 31.97 34.525 59.94 36.508 26.99 1.912 58.56-27.687 63.54-25.509 16.76 7.342 72.77 40.865 92.22 19.368s32.79-20.167 32.79-30.367V-9.67z"/></g><path fill="#C9FCBE" fill-opacity=".75" d="m239.673 66.415-5.924 2.157 1.095-6.21z"/><path fill="#755FFE" fill-opacity=".9" d="m79.78 30.059-1.8-1.931.772-2.525 2.573-.594 1.8 1.931-.772 2.525z"/><path fill="#DCBCFA" fill-opacity=".45" d="m69.62 69.003 4.831.593.93 4.777-4.257 2.36-3.56-3.32z"/><path fill="#03A3F5" fill-opacity=".45" d="m144.406 27.497 2.987-.97 2.333 2.1-.653 3.072-2.986.97-2.333-2.1z"/><path fill="#755FFE" fill-opacity=".85" d="m131.489 306.245 3.706-2.14 3.18 2.863-1.741 3.91-4.256-.448z"/><path fill="#F54721" fill-opacity=".45" d="m208.212 147.35-3.585.632-2.34-2.789 1.245-3.42 3.585-.632 2.34 2.788z"/><path fill="#03A3F5" fill-opacity=".45" d="m462.601 7.31 2.986-.971 2.334 2.101-.653 3.072-2.986.97-2.334-2.101z"/><path fill="#755FFE" fill-opacity=".85" d="m448.989 284.878 3.706-2.14 3.18 2.864-1.741 3.909-4.256-.448z"/><path fill="#F62584" fill-opacity=".9" d="m379.118 31.822 7.117-.874-2.802 6.6z"/><path fill="#480CA7" fill-opacity=".65" d="m962-14 2.694 8.292h8.719l-7.054 5.124 2.694 8.292L962 2.584l-7.053 5.124 2.694-8.292-7.054-5.124h8.719zM310 417l2.694 8.292h8.719l-7.054 5.124 2.694 8.292-7.053-5.124-7.053 5.124 2.694-8.292-7.054-5.124h8.719zM892-4l2.694 8.292h8.719l-7.054 5.124 2.694 8.292L892 12.584l-7.053 5.124 2.694-8.292-7.054-5.124h8.719zM1062 97l2.69 8.292h8.72l-7.05 5.124 2.69 8.292-7.05-5.124-7.05 5.124 2.69-8.292-7.05-5.124h8.72zM974 50l2.694 8.292h8.719l-7.054 5.124 2.694 8.292L974 66.584l-7.053 5.124 2.694-8.292-7.054-5.124h8.719z"/><path fill="#3D3BC4" fill-opacity=".45" d="m998 165 2.69 8.292h8.72l-7.05 5.124 2.69 8.292-7.05-5.124-7.053 5.124 2.694-8.292-7.054-5.124h8.719z"/><path fill="#3D3BC4" fill-opacity=".45" d="m998 165 2.69 8.292h8.72l-7.05 5.124 2.69 8.292-7.05-5.124-7.053 5.124 2.694-8.292-7.054-5.124h8.719zM804 13.845l3.817 11.747h12.351l-9.992 7.26 3.816 11.746-9.992-7.26-9.992 7.26 3.816-11.746-9.992-7.26h12.351zM553 220l3.817 11.747h12.351l-9.992 7.26 3.816 11.746-9.992-7.26-9.992 7.26 3.816-11.746-9.992-7.26h12.351zM846 203l3.817 11.747h12.351l-9.992 7.26 3.816 11.746-9.992-7.26-9.992 7.26 3.816-11.746-9.992-7.26h12.351z"/><path fill="#3D3BC4" fill-opacity=".45" d="m846 203 3.817 11.747h12.351l-9.992 7.26 3.816 11.746-9.992-7.26-9.992 7.26 3.816-11.746-9.992-7.26h12.351zM979 280l3.817 11.747h12.351l-9.992 7.26 3.816 11.746-9.992-7.26-9.992 7.26 3.816-11.746-9.992-7.26h12.351z"/><path fill="#480CA7" fill-opacity=".65" d="m1163.5 62 2.69 8.292h8.72l-7.05 5.124 2.69 8.292-7.05-5.124-7.05 5.124 2.69-8.292-7.05-5.124h8.72z"/><path fill="#F54721" d="m1124.25 23.715 1.86 3.21h-3.71z"/><path stroke="#fff" stroke-opacity=".11" d="M487.798 14.345h73.782v91.161h-73.782zM394.592 125.25h72.698v91.161h-72.698z"/><path stroke="#fff" stroke-opacity=".11" d="M433.608 59.644h72.698v91.161h-72.698zM340.402 170.549H413.1v91.161h-72.698z"/><path stroke="#fff" stroke-opacity=".11" d="M378.334 104.943h72.698v91.161h-72.698zM285.128 215.849h72.698v91.161h-72.698zM524.647 59.644h73.782v91.161h-73.782z"/><path stroke="#fff" stroke-opacity=".11" d="M431.441 170.549h73.782v91.161h-73.782z"/><path stroke="#fff" stroke-opacity=".11" d="M470.458 104.943h72.698v91.161h-72.698zM377.251 215.849h72.698v91.161h-72.698z"/><path stroke="#fff" stroke-opacity=".11" d="M415.184 148.681h73.782v91.161h-73.782zM321.977 259.586h72.698v91.161h-72.698zM562.58 104.943h72.698v91.161H562.58z"/><path stroke="#fff" stroke-opacity=".11" d="M507.307 148.681h72.698v91.161h-72.698zM414.1 259.586h72.698v91.161H414.1z"/><path stroke="#fff" stroke-opacity=".11" d="M452.033 193.98h73.782v91.161h-73.782zM358.826 304.885h73.782v91.161h-73.782zM599.43 148.681h72.698v91.161H599.43z"/><path stroke="#fff" stroke-opacity=".11" d="M544.156 193.98h72.698v91.161h-72.698zM450.949 304.885h72.698v91.161h-72.698z"/><path stroke="#fff" stroke-opacity=".11" d="M489.966 239.279h72.698v91.161h-72.698zM395.676 350.184h73.782v91.161h-73.782z"/></g><defs><filter id="b" width="310" height="44" x="0" y="434" color-interpolation-filters="sRGB" filterUnits="userSpaceOnUse"><feFlood flood-opacity="0" result="BackgroundImageFix"/><feBlend in="SourceGraphic" in2="BackgroundImageFix" result="shape"/><feColorMatrix in="SourceAlpha" result="hardAlpha" values="0 0 0 0 0 0 0 0 0 0 0 0 0 0 0 0 0 0 127 0"/><feOffset dy="4"/><feGaussianBlur stdDeviation="2"/><feComposite in2="hardAlpha" k2="-1" k3="1" operator="arithmetic"/><feColorMatrix values="0 0 0 0 1 0 0 0 0 1 0 0 0 0 1 0 0 0 0.3 0"/><feBlend in2="shape" result="effect1_innerShadow_1511_2109"/></filter><filter id="c" width="334" height="64" x="548" y="435" color-interpolation-filters="sRGB" filterUnits="userSpaceOnUse"><feFlood flood-opacity="0" result="BackgroundImageFix"/><feBlend in="SourceGraphic" in2="BackgroundImageFix" result="shape"/><feColorMatrix in="SourceAlpha" result="hardAlpha" values="0 0 0 0 0 0 0 0 0 0 0 0 0 0 0 0 0 0 127 0"/><feOffset dy="4"/><feGaussianBlur stdDeviation="2"/><feComposite in2="hardAlpha" k2="-1" k3="1" operator="arithmetic"/><feColorMatrix values="0 0 0 0 1 0 0 0 0 1 0 0 0 0 1 0 0 0 0.3 0"/><feBlend in2="shape" result="effect1_innerShadow_1511_2109"/></filter><filter id="d" width="395.977" height="428.539" x="995.82" y="194.614" color-interpolation-filters="sRGB" filterUnits="userSpaceOnUse"><feFlood flood-opacity="0" result="BackgroundImageFix"/><feBlend in="SourceGraphic" in2="BackgroundImageFix" result="shape"/><feColorMatrix in="SourceAlpha" result="hardAlpha" values="0 0 0 0 0 0 0 0 0 0 0 0 0 0 0 0 0 0 127 0"/><feOffset dy="4"/><feGaussianBlur stdDeviation="2"/><feComposite in2="hardAlpha" k2="-1" k3="1" operator="arithmetic"/><feColorMatrix values="0 0 0 0 1 0 0 0 0 1 0 0 0 0 1 0 0 0 0.3 0"/><feBlend in2="shape" result="effect1_innerShadow_1511_2109"/></filter><filter id="e" width="312" height="64" x="1007.5" y="-10" color-interpolation-filters="sRGB" filterUnits="userSpaceOnUse"><feFlood flood-opacity="0" result="BackgroundImageFix"/><feBlend in="SourceGraphic" in2="BackgroundImageFix" result="shape"/><feColorMatrix in="SourceAlpha" result="hardAlpha" values="0 0 0 0 0 0 0 0 0 0 0 0 0 0 0 0 0 0 127 0"/><feOffset dy="4"/><feGaussianBlur stdDeviation="2"/><feComposite in2="hardAlpha" k2="-1" k3="1" operator="arithmetic"/><feColorMatrix values="0 0 0 0 1 0 0 0 0 1 0 0 0 0 1 0 0 0 0.3 0"/><feBlend in2="shape" result="effect1_innerShadow_1511_2109"/></filter><clipPath id="a"><path fill="#fff" d="M0 0h1208v474H0z"/></clipPath></defs></svg>