<svg width="32" height="32" viewBox="0 0 32 32" fill="none" xmlns="http://www.w3.org/2000/svg">
<path opacity="0.25" d="M7 30C7 30.1313 7.23279 30.2614 7.68508 30.3827C8.13738 30.504 8.80031 30.6142 9.63604 30.7071C10.4718 30.8 11.4639 30.8736 12.5558 30.9239C13.6478 30.9741 14.8181 31 16 31C17.1819 31 18.3522 30.9741 19.4442 30.9239C20.5361 30.8736 21.5282 30.8 22.364 30.7071C23.1997 30.6142 23.8626 30.504 24.3149 30.3827C24.7672 30.2614 25 30.1313 25 30C25 29.7348 24.0518 29.4804 22.364 29.2929C20.6761 29.1054 18.3869 29 16 29C13.6131 29 11.3239 29.1054 9.63604 29.2929C7.94821 29.4804 7 29.7348 7 30Z" fill="#F1F9FB" fill-opacity="0.27"/>
<path d="M16 3.1665C19.4036 3.1665 22.6685 4.51858 25.0752 6.92529C27.4817 9.33192 28.8339 12.5961 28.834 15.9995C28.834 19.4031 27.4819 22.668 25.0752 25.0747C22.6685 27.4814 19.4036 28.8335 16 28.8335C12.5966 28.8334 9.33241 27.4812 6.92578 25.0747C4.51906 22.668 3.16699 19.4031 3.16699 15.9995C3.16708 12.596 4.51914 9.33193 6.92578 6.92529C9.33242 4.51865 12.5965 3.16659 16 3.1665Z" stroke="#ECF0F1"/>
<path opacity="0.2" d="M28.791 15.9102C28.6835 19.2879 27.3491 22.5031 25.0479 24.8984C22.6467 27.3976 19.392 28.7998 16 28.7998C12.608 28.7998 9.35326 27.3976 6.95215 24.8984C4.65092 22.5031 3.31548 19.2879 3.20801 15.9102C3.84872 18.536 5.22497 20.9225 7.18457 22.752C9.45439 24.871 12.3556 26.1031 15.3916 26.249L16 26.2637C19.2551 26.2633 22.3944 25.0121 24.8154 22.752C26.775 20.9226 28.1503 18.5359 28.791 15.9102Z" stroke="#ECF0F1" stroke-width="0.4"/>
<path d="M2.66699 15.9998C2.66699 19.5361 4.07175 22.9274 6.57224 25.4279C9.07272 27.9284 12.4641 29.3332 16.0003 29.3332C19.5365 29.3332 22.9279 27.9284 25.4284 25.4279C27.9289 22.9274 29.3337 19.5361 29.3337 15.9998C29.3337 12.4636 27.9289 9.07223 25.4284 6.57175C22.9279 4.07126 19.5365 2.6665 16.0003 2.6665C12.4641 2.6665 9.07272 4.07126 6.57224 6.57175C4.07175 9.07223 2.66699 12.4636 2.66699 15.9998Z" stroke="#EDECEB" stroke-width="0.666667" stroke-linecap="round" stroke-linejoin="round"/>
<path d="M10 16C10 17.5913 10.6321 19.1174 11.7574 20.2426C12.8826 21.3679 14.4087 22 16 22C17.5913 22 19.1174 21.3679 20.2426 20.2426C21.3679 19.1174 22 17.5913 22 16C22 14.4087 21.3679 12.8826 20.2426 11.7574C19.1174 10.6321 17.5913 10 16 10C14.4087 10 12.8826 10.6321 11.7574 11.7574C10.6321 12.8826 10 14.4087 10 16Z" fill="#ECF0F1" stroke="#F7F7F7" stroke-width="0.666667" stroke-linecap="round" stroke-linejoin="round"/>
<path d="M14.333 14.3798C14.333 14.7175 14.5086 15.0414 14.8212 15.2802C15.1337 15.519 15.5576 15.6531 15.9997 15.6531C16.4417 15.6531 16.8656 15.519 17.1782 15.2802C17.4907 15.0414 17.6663 14.7175 17.6663 14.3798C17.6663 14.0421 17.4907 13.7182 17.1782 13.4794C16.8656 13.2406 16.4417 13.1064 15.9997 13.1064C15.5576 13.1064 15.1337 13.2406 14.8212 13.4794C14.5086 13.7182 14.333 14.0421 14.333 14.3798Z" stroke="#000A27" stroke-width="0.666667" stroke-linecap="round" stroke-linejoin="round"/>
<path d="M13.96 17.1533C13.96 17.3503 14.0117 17.5454 14.1122 17.7273C14.2127 17.9093 14.36 18.0747 14.5457 18.214C14.7315 18.3533 14.9519 18.4638 15.1946 18.5391C15.4372 18.6145 15.6973 18.6533 15.96 18.6533C16.2226 18.6533 16.4827 18.6145 16.7253 18.5391C16.968 18.4638 17.1885 18.3533 17.3742 18.214C17.5599 18.0747 17.7072 17.9093 17.8077 17.7273C17.9082 17.5454 17.96 17.3503 17.96 17.1533C17.96 16.9563 17.9082 16.7613 17.8077 16.5793C17.7072 16.3973 17.5599 16.2319 17.3742 16.0927C17.1885 15.9534 16.968 15.8429 16.7253 15.7675C16.4827 15.6921 16.2226 15.6533 15.96 15.6533C15.6973 15.6533 15.4372 15.6921 15.1946 15.7675C14.9519 15.8429 14.7315 15.9534 14.5457 16.0927C14.36 16.2319 14.2127 16.3973 14.1122 16.5793C14.0117 16.7613 13.96 16.9563 13.96 17.1533Z" stroke="#000A27" stroke-width="0.666667" stroke-linecap="round" stroke-linejoin="round"/>
<path opacity="0.5" d="M19 5C19 5.54 17.656 6 16 6C14.344 6 13 5.56 13 5C13 4.44 14.344 4 16 4C17.656 4 19 4.455 19 5Z" fill="#F1F9FB" fill-opacity="0.27"/>
</svg>
