<svg width="24" height="16" viewBox="0 0 24 16" fill="none" xmlns="http://www.w3.org/2000/svg">
<path d="M2.15467 16C1.54044 16 1.028 15.7947 0.617333 15.384C0.206667 14.9733 0.000888889 14.4604 0 13.8453V2.15467C0 1.54044 0.205778 1.028 0.617333 0.617333C1.02889 0.206666 1.54089 0.000888889 2.15333 0H21.8467C22.46 0 22.972 0.205778 23.3827 0.617333C23.7933 1.02889 23.9991 1.54133 24 2.15467V13.8467C24 14.46 23.7942 14.9724 23.3827 15.384C22.9711 15.7956 22.4591 16.0009 21.8467 16H2.15467ZM2.15467 14.6667H21.8467C22.0511 14.6667 22.2391 14.5813 22.4107 14.4107C22.5822 14.24 22.6676 14.0516 22.6667 13.8453V2.15467C22.6667 1.94933 22.5813 1.76089 22.4107 1.58933C22.24 1.41778 22.052 1.33244 21.8467 1.33333H2.15333C1.94889 1.33333 1.76089 1.41867 1.58933 1.58933C1.41778 1.76 1.33244 1.94844 1.33333 2.15467V13.8467C1.33333 14.0511 1.41867 14.2391 1.58933 14.4107C1.76 14.5822 1.948 14.6676 2.15333 14.6667M6.97467 13.0267H17.0253V10.9733H6.97467V13.0267ZM2.97467 9.02667H5.02533V6.97333H2.97467V9.02667ZM6.97467 9.02667H9.02533V6.97333H6.97467V9.02667ZM10.9747 9.02667H13.0253V6.97333H10.9747V9.02667ZM14.9747 9.02667H17.0253V6.97333H14.9747V9.02667ZM18.9747 9.02667H21.0253V6.97333H18.9747V9.02667ZM2.97467 5.02667H5.02533V2.97333H2.97467V5.02667ZM6.97467 5.02667H9.02533V2.97333H6.97467V5.02667ZM10.9747 5.02667H13.0253V2.97333H10.9747V5.02667ZM14.9747 5.02667H17.0253V2.97333H14.9747V5.02667ZM18.9747 5.02667H21.0253V2.97333H18.9747V5.02667Z" fill="#CBCCD1"/>
</svg>
