<svg width="32" height="32" viewBox="0 0 32 32" fill="none" xmlns="http://www.w3.org/2000/svg">
<g filter="url(#filter0_ii_483_511)">
<rect x="1.25" y="1.25" width="29.5" height="29.5" rx="1.75" stroke="white" stroke-width="2.5"/>
<path d="M8.51269 21L7.40324 18.9195L6.47006 21H4.55184L6.45969 17.1745L4.5 13.5101H6.49079L7.60025 15.5772L8.53343 13.5101H10.4516L8.51269 17.2819L10.5035 21H8.51269Z" fill="white"/>
<path d="M10.8238 13.3356V11.2013H13.6959V21H11.8503V13.3356H10.8238Z" fill="white"/>
<path d="M14.9088 15.9664C14.9088 14.4273 15.1369 13.2148 15.5932 12.3289C16.0563 11.443 16.7994 11 17.8224 11C18.8455 11 19.5851 11.443 20.0413 12.3289C20.5045 13.2148 20.736 14.4273 20.736 15.9664C20.736 17.5235 20.5045 18.745 20.0413 19.6309C19.5851 20.5168 18.8455 20.9597 17.8224 20.9597C16.7994 20.9597 16.0563 20.5168 15.5932 19.6309C15.1369 18.745 14.9088 17.5235 14.9088 15.9664ZM18.9941 15.9664C18.9941 15.0626 18.9181 14.3691 18.766 13.8859C18.6139 13.3937 18.2994 13.1477 17.8224 13.1477C17.3455 13.1477 17.0309 13.3937 16.8789 13.8859C16.7268 14.3691 16.6508 15.0626 16.6508 15.9664C16.6508 16.5749 16.6784 17.0805 16.7337 17.4832C16.789 17.877 16.8996 18.1991 17.0655 18.4497C17.2383 18.6913 17.4906 18.8121 17.8224 18.8121C18.1542 18.8121 18.4031 18.6913 18.569 18.4497C18.7418 18.1991 18.8558 17.877 18.9111 17.4832C18.9664 17.0805 18.9941 16.5749 18.9941 15.9664Z" fill="white"/>
<path d="M21.6728 15.9664C21.6728 14.4273 21.9009 13.2148 22.3571 12.3289C22.8203 11.443 23.5633 11 24.5864 11C25.6094 11 26.3491 11.443 26.8053 12.3289C27.2684 13.2148 27.5 14.4273 27.5 15.9664C27.5 17.5235 27.2684 18.745 26.8053 19.6309C26.3491 20.5168 25.6094 20.9597 24.5864 20.9597C23.5633 20.9597 22.8203 20.5168 22.3571 19.6309C21.9009 18.745 21.6728 17.5235 21.6728 15.9664ZM25.7581 15.9664C25.7581 15.0626 25.682 14.3691 25.5299 13.8859C25.3779 13.3937 25.0634 13.1477 24.5864 13.1477C24.1094 13.1477 23.7949 13.3937 23.6428 13.8859C23.4908 14.3691 23.4147 15.0626 23.4147 15.9664C23.4147 16.5749 23.4424 17.0805 23.4977 17.4832C23.553 17.877 23.6636 18.1991 23.8295 18.4497C24.0023 18.6913 24.2546 18.8121 24.5864 18.8121C24.9182 18.8121 25.167 18.6913 25.3329 18.4497C25.5058 18.1991 25.6198 17.877 25.6751 17.4832C25.7304 17.0805 25.7581 16.5749 25.7581 15.9664Z" fill="white"/>
</g>
<defs>
<filter id="filter0_ii_483_511" x="-2" y="-2" width="36" height="36" filterUnits="userSpaceOnUse" color-interpolation-filters="sRGB">
<feFlood flood-opacity="0" result="BackgroundImageFix"/>
<feBlend mode="normal" in="SourceGraphic" in2="BackgroundImageFix" result="shape"/>
<feColorMatrix in="SourceAlpha" type="matrix" values="0 0 0 0 0 0 0 0 0 0 0 0 0 0 0 0 0 0 127 0" result="hardAlpha"/>
<feOffset dx="-2" dy="2"/>
<feGaussianBlur stdDeviation="2"/>
<feComposite in2="hardAlpha" operator="arithmetic" k2="-1" k3="1"/>
<feColorMatrix type="matrix" values="0 0 0 0 0.85098 0 0 0 0 0.85098 0 0 0 0 0.85098 0 0 0 0.25 0"/>
<feBlend mode="normal" in2="shape" result="effect1_innerShadow_483_511"/>
<feColorMatrix in="SourceAlpha" type="matrix" values="0 0 0 0 0 0 0 0 0 0 0 0 0 0 0 0 0 0 127 0" result="hardAlpha"/>
<feOffset dx="2" dy="-2"/>
<feGaussianBlur stdDeviation="7.5"/>
<feComposite in2="hardAlpha" operator="arithmetic" k2="-1" k3="1"/>
<feColorMatrix type="matrix" values="0 0 0 0 0.85098 0 0 0 0 0.85098 0 0 0 0 0.85098 0 0 0 1 0"/>
<feBlend mode="normal" in2="effect1_innerShadow_483_511" result="effect2_innerShadow_483_511"/>
</filter>
</defs>
</svg>
