<svg width="32" height="32" viewBox="0 0 32 32" fill="none" xmlns="http://www.w3.org/2000/svg">
<path fill-rule="evenodd" clip-rule="evenodd" d="M22.6 3.44787C22.85 3.6979 22.9904 4.03698 22.9904 4.39053C22.9904 4.74409 22.85 5.08316 22.6 5.3332L18.6 9.3332H25.3333C26.0406 9.3332 26.7189 9.61415 27.219 10.1142C27.719 10.6143 28 11.2926 28 11.9999V25.3332C28 26.0404 27.719 26.7187 27.219 27.2188C26.7189 27.7189 26.0406 27.9999 25.3333 27.9999H6.66667C5.95942 27.9999 5.28115 27.7189 4.78105 27.2188C4.28095 26.7187 4 26.0404 4 25.3332V11.9999C4 11.2926 4.28095 10.6143 4.78105 10.1142C5.28115 9.61415 5.95942 9.3332 6.66667 9.3332H11.5147L9.4 7.21853C9.14999 6.96835 9.0096 6.62909 9.00973 6.2754C9.00986 5.9217 9.15048 5.58255 9.40067 5.33253C9.65085 5.08252 9.99011 4.94214 10.3438 4.94226C10.6975 4.94239 11.0367 5.08301 11.2867 5.3332L14.5853 8.6332C14.7104 8.75818 14.8799 8.82839 15.0567 8.82839C15.2334 8.82839 15.403 8.75818 15.528 8.6332L20.7147 3.44653C20.9647 3.19657 21.3038 3.05615 21.6573 3.05615C22.0109 3.05615 22.35 3.19791 22.6 3.44787ZM25.3333 11.9999H6.66667V25.3332H25.3333V11.9999ZM11.9733 15.3959C12.0014 15.1395 12.0894 14.8933 12.2303 14.6773C12.3712 14.4612 12.561 14.2814 12.7843 14.1523C13.0076 14.0233 13.2582 13.9486 13.5157 13.9344C13.7733 13.9202 14.0305 13.9668 14.2667 14.0705C15.2717 14.5143 16.251 15.0142 17.2 15.5679C18.1551 16.1137 19.0788 16.7129 19.9667 17.3625C20.8573 18.0212 20.86 19.3479 19.9667 20.0079C19.0788 20.6566 18.1551 21.2549 17.2 21.7999C15.8707 22.5679 14.82 23.0572 14.2667 23.2985C14.0307 23.4028 13.7734 23.4499 13.5157 23.4361C13.2581 23.4222 13.0073 23.3477 12.7839 23.2187C12.5604 23.0897 12.3706 22.9098 12.2297 22.6936C12.0889 22.4774 12.001 22.2311 11.9733 21.9745C11.8576 20.8819 11.8006 19.7839 11.8027 18.6852C11.8027 17.1652 11.9067 15.9999 11.9733 15.3959ZM14.5093 17.1372C14.4573 18.1677 14.4573 19.2001 14.5093 20.2305C15.4272 19.7603 16.3208 19.2441 17.1867 18.6839C16.3208 18.1236 15.4272 17.6074 14.5093 17.1372Z" fill="#00DD25"/>
</svg>
