<svg width="68" height="68" viewBox="0 0 68 68" fill="none" xmlns="http://www.w3.org/2000/svg">
<path d="M53.8337 11.3333H14.167C11.9127 11.3333 9.75064 12.2289 8.15658 13.8229C6.56253 15.417 5.66699 17.579 5.66699 19.8333V48.1667C5.66699 50.421 6.56253 52.583 8.15658 54.1771C9.75064 55.7711 11.9127 56.6667 14.167 56.6667H53.8337C56.088 56.6667 58.25 55.7711 59.8441 54.1771C61.4381 52.583 62.3337 50.421 62.3337 48.1667V19.8333C62.3337 17.579 61.4381 15.417 59.8441 13.8229C58.25 12.2289 56.088 11.3333 53.8337 11.3333ZM51.9353 17L34.0003 30.4583L16.0653 17H51.9353ZM53.8337 51H14.167C13.4155 51 12.6949 50.7015 12.1635 50.1701C11.6322 49.6388 11.3337 48.9181 11.3337 48.1667V20.5417L32.3003 36.2667C32.7908 36.6345 33.3873 36.8333 34.0003 36.8333C34.6134 36.8333 35.2099 36.6345 35.7003 36.2667L56.667 20.5417V48.1667C56.667 48.9181 56.3685 49.6388 55.8371 50.1701C55.3058 50.7015 54.5851 51 53.8337 51Z" fill="#7D83FF"/>
</svg>
