<svg width="19" height="15" viewBox="0 0 19 15" fill="none" xmlns="http://www.w3.org/2000/svg">
<path d="M0.0629883 1.02778C0.0629883 0.821498 0.144264 0.623667 0.288935 0.477806C0.433606 0.331944 0.629822 0.25 0.834417 0.25H17.2916C17.4962 0.25 17.6924 0.331944 17.837 0.477806C17.9817 0.623667 18.063 0.821498 18.063 1.02778C18.063 1.23406 17.9817 1.43189 17.837 1.57775C17.6924 1.72361 17.4962 1.80556 17.2916 1.80556H0.834417C0.629822 1.80556 0.433606 1.72361 0.288935 1.57775C0.144264 1.43189 0.0629883 1.23406 0.0629883 1.02778ZM0.0629883 13.4722C0.0629883 13.2659 0.144264 13.0681 0.288935 12.9222C0.433606 12.7764 0.629822 12.6944 0.834417 12.6944H17.2916C17.4962 12.6944 17.6924 12.7764 17.837 12.9222C17.9817 13.0681 18.063 13.2659 18.063 13.4722C18.063 13.6785 17.9817 13.8763 17.837 14.0222C17.6924 14.1681 17.4962 14.25 17.2916 14.25H0.834417C0.629822 14.25 0.433606 14.1681 0.288935 14.0222C0.144264 13.8763 0.0629883 13.6785 0.0629883 13.4722ZM0.834417 6.47222C0.629822 6.47222 0.433606 6.55417 0.288935 6.70003C0.144264 6.84589 0.0629883 7.04372 0.0629883 7.25C0.0629883 7.45628 0.144264 7.65411 0.288935 7.79997C0.433606 7.94583 0.629822 8.02778 0.834417 8.02778H17.2916C17.4962 8.02778 17.6924 7.94583 17.837 7.79997C17.9817 7.65411 18.063 7.45628 18.063 7.25C18.063 7.04372 17.9817 6.84589 17.837 6.70003C17.6924 6.55417 17.4962 6.47222 17.2916 6.47222H0.834417Z" fill="#ECF0F1"/>
</svg>
