<svg width="30" height="30" viewBox="0 0 30 30" fill="none" xmlns="http://www.w3.org/2000/svg">
<path d="M20.3333 19C20.3333 21.4753 19.35 23.8493 17.5996 25.5997C15.8493 27.35 13.4753 28.3333 11 28.3333C8.52461 28.3333 6.15064 27.35 4.4003 25.5997C2.64996 23.8493 1.66663 21.4753 1.66663 19C1.66663 16.5246 2.64996 14.1507 4.4003 12.4003C6.15064 10.65 8.52461 9.66666 11 9.66666C13.4753 9.66666 15.8493 10.65 17.5996 12.4003C19.35 14.1507 20.3333 16.5246 20.3333 19Z" stroke="#ECF0F1" stroke-width="2" stroke-linecap="round" stroke-linejoin="round"/>
<path d="M15 10.3333L14.292 8.56133C14.0787 8.032 13.972 7.76666 13.8307 7.54666C13.6366 7.24799 13.3846 6.99123 13.0897 6.79154C12.7947 6.59185 12.4627 6.45328 12.1133 6.384C11.8573 6.33333 11.5707 6.33333 11 6.33333C10.4293 6.33333 10.1427 6.33333 9.88667 6.384C9.53727 6.45328 9.2053 6.59185 8.91034 6.79154C8.61539 6.99123 8.36343 7.24799 8.16933 7.54666C8.02667 7.76666 7.92133 8.032 7.70933 8.56133L7 10.3333M28.3333 9L26.3333 7M26.3333 7L24.3333 5M26.3333 7L24.3333 9M26.3333 7L28.3333 5M21.6667 7C17.6667 7 18.2133 3.58666 14.8133 2.02266C11.8267 0.649329 10.6933 3.54266 11.0693 5.66666" stroke="#ECF0F1" stroke-width="2" stroke-linecap="round" stroke-linejoin="round"/>
</svg>
