<svg version="1.1" id="Icons" xmlns="http://www.w3.org/2000/svg" xmlns:xlink="http://www.w3.org/1999/xlink" viewBox="0 0 32 32" xml:space="preserve" width="256px" height="256px" fill="#000" stroke="#000"><g id="SVGRepo_bgCarrier" stroke-width="0"></g><g id="SVGRepo_tracerCarrier" stroke-linecap="round" stroke-linejoin="round" stroke="#CCCCCC" stroke-width="0.128"></g><g id="SVGRepo_iconCarrier"> <style type="text/css"> .st0{fill:none;stroke:#000;stroke-width:2;stroke-linecap:round;stroke-linejoin:round;stroke-miterlimit:10;} </style> <path class="st0" d="M22,21c-1.1,0-2.1,0.4-3,1H13c-0.8-0.6-1.9-1-3-1c-2.8,0-5,2.2-5,5s2.2,5,5,5c1.1,0,2.1-0.4,3-1H19 c0.8,0.6,1.9,1,3,1c2.8,0,5-2.2,5-5S24.8,21,22,21z"></path> <line class="st0" x1="10" y1="24" x2="10" y2="28"></line> <line class="st0" x1="8" y1="26" x2="12" y2="26"></line> <line class="st0" x1="23" y1="25" x2="23" y2="25"></line> <line class="st0" x1="21" y1="27" x2="21" y2="27"></line> <circle class="st0" cx="16" cy="9" r="8"></circle> <ellipse class="st0" cx="16" cy="9" rx="3.7" ry="8"></ellipse> <line class="st0" x1="8" y1="9" x2="24" y2="9"></line> <line class="st0" x1="16" y1="22" x2="16" y2="17"></line> </g></svg>