<svg width="20" height="14" viewBox="0 0 20 14" fill="none" xmlns="http://www.w3.org/2000/svg">
<path d="M19.5544 13.6292C19.509 13.7389 19.4321 13.8327 19.3335 13.8987C19.2348 13.9647 19.1187 14 19 14H11.8C11.6409 14 11.4882 13.9368 11.3757 13.8243C11.2632 13.7117 11.2 13.5591 11.2 13.4C11.2 13.2409 11.2632 13.0883 11.3757 12.9757C11.4882 12.8632 11.6409 12.8 11.8 12.8H17.5516L10.6 5.8484L8.02479 8.4248C7.96905 8.48067 7.90284 8.525 7.82995 8.55525C7.75705 8.5855 7.67891 8.60107 7.59999 8.60107C7.52107 8.60107 7.44292 8.5855 7.37003 8.55525C7.29713 8.525 7.23092 8.48067 7.17519 8.4248L0.575189 1.8248C0.519403 1.76901 0.475152 1.70279 0.444961 1.6299C0.41477 1.55701 0.399231 1.47889 0.399231 1.4C0.399231 1.32111 0.41477 1.24298 0.444961 1.1701C0.475152 1.09721 0.519403 1.03098 0.575189 0.975198C0.630974 0.919412 0.697201 0.875161 0.770089 0.84497C0.842976 0.814779 0.921096 0.79924 0.999989 0.79924C1.07888 0.79924 1.157 0.814779 1.22989 0.84497C1.30278 0.875161 1.369 0.919412 1.42479 0.975198L7.59999 7.1516L10.1752 4.5752C10.2309 4.51932 10.2971 4.47499 10.37 4.44474C10.4429 4.41449 10.5211 4.39893 10.6 4.39893C10.6789 4.39893 10.7571 4.41449 10.8299 4.44474C10.9028 4.47499 10.9691 4.51932 11.0248 4.5752L18.4 11.9516V6.2C18.4 6.04087 18.4632 5.88826 18.5757 5.77573C18.6882 5.66321 18.8409 5.6 19 5.6C19.1591 5.6 19.3117 5.66321 19.4243 5.77573C19.5368 5.88826 19.6 6.04087 19.6 6.2V13.4C19.6 13.4786 19.5845 13.5565 19.5544 13.6292Z" fill="#ECF0F1"/>
</svg>
