<svg width="24" height="24" viewBox="0 0 24 24" fill="none" xmlns="http://www.w3.org/2000/svg">
<path d="M0 3C0 2.20435 0.31607 1.44129 0.87868 0.87868C1.44129 0.31607 2.20435 0 3 0H15.6667C16.4623 0 17.2254 0.31607 17.788 0.87868C18.3506 1.44129 18.6667 2.20435 18.6667 3V14.6667H24V19.6667C24 20.8159 23.5435 21.9181 22.7308 22.7308C21.9181 23.5435 20.8159 24 19.6667 24H4.33333C3.18406 24 2.08186 23.5435 1.2692 22.7308C0.456546 21.9181 0 20.8159 0 19.6667V3ZM18.6667 22H19.6667C20.2855 22 20.879 21.7542 21.3166 21.3166C21.7542 20.879 22 20.2855 22 19.6667V16.6667H18.6667V22ZM3 2C2.73478 2 2.48043 2.10536 2.29289 2.29289C2.10536 2.48043 2 2.73478 2 3V19.6667C2 20.9547 3.04533 22 4.33333 22H16.6667V3C16.6667 2.73478 16.5613 2.48043 16.3738 2.29289C16.1862 2.10536 15.9319 2 15.6667 2H3ZM5.66667 5.33333C5.40145 5.33333 5.1471 5.43869 4.95956 5.62623C4.77202 5.81376 4.66667 6.06812 4.66667 6.33333C4.66667 6.59855 4.77202 6.8529 4.95956 7.04044C5.1471 7.22798 5.40145 7.33333 5.66667 7.33333H13C13.2652 7.33333 13.5196 7.22798 13.7071 7.04044C13.8946 6.8529 14 6.59855 14 6.33333C14 6.06812 13.8946 5.81376 13.7071 5.62623C13.5196 5.43869 13.2652 5.33333 13 5.33333H5.66667ZM4.66667 11.6667C4.66667 11.4015 4.77202 11.1471 4.95956 10.9596C5.1471 10.772 5.40145 10.6667 5.66667 10.6667H13C13.2652 10.6667 13.5196 10.772 13.7071 10.9596C13.8946 11.1471 14 11.4015 14 11.6667C14 11.9319 13.8946 12.1862 13.7071 12.3738C13.5196 12.5613 13.2652 12.6667 13 12.6667H5.66667C5.40145 12.6667 5.1471 12.5613 4.95956 12.3738C4.77202 12.1862 4.66667 11.9319 4.66667 11.6667ZM5.66667 16C5.40145 16 5.1471 16.1054 4.95956 16.2929C4.77202 16.4804 4.66667 16.7348 4.66667 17C4.66667 17.2652 4.77202 17.5196 4.95956 17.7071C5.1471 17.8946 5.40145 18 5.66667 18H9.66667C9.93188 18 10.1862 17.8946 10.3738 17.7071C10.5613 17.5196 10.6667 17.2652 10.6667 17C10.6667 16.7348 10.5613 16.4804 10.3738 16.2929C10.1862 16.1054 9.93188 16 9.66667 16H5.66667Z" fill="#ECF0F1"/>
</svg>
