<svg width="32" height="32" viewBox="0 0 32 32" fill="none" xmlns="http://www.w3.org/2000/svg">
<path d="M24.56 3.72931L25.0746 3.80398C25.8746 3.93065 26.7706 4.14265 27.3213 4.69331C27.872 5.24398 28.0853 6.14131 28.212 6.94131L28.2866 7.45465C28.4546 8.66798 28.4986 10.2586 28.212 12.024C27.6466 15.508 25.792 19.664 21.1346 22.884C21.1143 23.1221 21.1067 23.3611 21.112 23.6L21.1346 24.324C21.148 24.8066 21.14 25.288 21.0066 25.7506C20.7533 26.6306 19.8506 27.2106 19.0066 27.6266L18.5933 27.8227L18.06 28.0573L17.696 28.204C16.7533 28.564 15.616 28.816 14.872 28.0706C14.5346 27.7333 14.3786 27.2746 14.2533 26.816L14.192 26.5867C13.9786 25.7773 13.7373 24.9733 13.436 24.1946C13.3528 24.2958 13.2647 24.3928 13.172 24.4853C12.4453 25.2106 11.46 25.576 10.4746 25.8586L9.81998 26.0386L9.16665 26.212L8.52931 26.372L7.95331 26.5053L7.26398 26.652L6.83331 26.736C6.61852 26.7758 6.39729 26.7627 6.18868 26.6979C5.98007 26.6331 5.79036 26.5185 5.6359 26.3641C5.48144 26.2096 5.36688 26.0199 5.30208 25.8113C5.23729 25.6027 5.22421 25.3814 5.26398 25.1666L5.41198 24.432L5.58398 23.6613L5.74931 22.9813L6.04931 21.8546C6.34665 20.7613 6.70798 19.6346 7.51598 18.828L7.64798 18.7013L6.63065 18.336L5.60798 17.984C5.00931 17.7866 4.37998 17.5786 3.94531 17.144C3.15065 16.3493 3.48798 15.1093 3.88398 14.1346L4.10531 13.6186L4.28798 13.2173C4.71065 12.3186 5.31064 11.284 6.26531 11.0093C6.72798 10.876 7.20798 10.868 7.69198 10.88L8.41598 10.904C8.65598 10.9102 8.89465 10.9026 9.13198 10.8813C12.3506 6.22398 16.508 4.36931 19.992 3.80398C21.5027 3.55506 23.0419 3.5299 24.56 3.72931ZM20.4186 6.43598C17.488 6.91198 13.9266 8.48132 11.148 12.6613C10.8106 13.168 10.2413 13.4093 9.66131 13.5013C9.33331 13.5546 9.00265 13.568 8.67064 13.568L7.67465 13.5533C7.50931 13.5524 7.34353 13.5551 7.17731 13.5613C6.77198 14.1 6.48931 14.74 6.27731 15.376L8.27731 16.1026L9.09998 16.4133C10.604 17.0026 12.06 17.716 13.18 18.836C15.0666 20.7226 16.0253 23.1906 16.7186 25.712C17.3266 25.4986 17.9373 25.2266 18.4546 24.8386L18.4626 24.3413L18.448 23.3466C18.448 23.016 18.4613 22.6853 18.5146 22.3546C18.6053 21.7746 18.848 21.2053 19.3546 20.868C23.5346 18.0893 25.104 14.528 25.58 11.5973C25.82 10.1173 25.78 8.79465 25.6453 7.81998C25.5935 7.41564 25.5074 7.01642 25.388 6.62665C24.9982 6.50769 24.599 6.42205 24.1946 6.37065C22.9395 6.20799 21.6673 6.22912 20.4186 6.43598ZM9.39998 20.7133C8.93331 21.2773 8.71598 22.0173 8.54131 22.7506L8.39731 23.3746L8.32398 23.676L9.24931 23.4586C9.98265 23.2853 10.724 23.0653 11.2866 22.5986C11.5367 22.3485 11.677 22.0092 11.6769 21.6555C11.6768 21.3018 11.5362 20.9627 11.286 20.7126C11.0358 20.4626 10.6965 20.3223 10.3428 20.3224C9.98915 20.3225 9.64999 20.4631 9.39998 20.7133ZM16.9426 11.2866C17.1902 11.039 17.4842 10.8425 17.8077 10.7084C18.1312 10.5743 18.478 10.5053 18.8282 10.5052C19.1784 10.5052 19.5252 10.5741 19.8487 10.7081C20.1723 10.842 20.4663 11.0384 20.714 11.286C20.9617 11.5336 21.1581 11.8275 21.2922 12.151C21.4263 12.4746 21.4953 12.8213 21.4954 13.1715C21.4954 13.5217 21.4265 13.8685 21.2926 14.1921C21.1586 14.5156 20.9622 14.8096 20.7146 15.0573C20.2144 15.5575 19.536 15.8385 18.8286 15.8385C18.1213 15.8385 17.4428 15.5575 16.9426 15.0573C16.4424 14.5571 16.1614 13.8787 16.1614 13.1713C16.1614 12.4639 16.4424 11.7855 16.9426 11.2853V11.2866Z" fill="#ECF0F1"/>
</svg>
