<svg width="188" height="188" viewBox="0 0 188 188" fill="none" xmlns="http://www.w3.org/2000/svg">
<g opacity="0.3">
<path d="M0 158.115C0 154.802 2.68629 152.115 6 152.115H182C185.314 152.115 188 154.802 188 158.115V169.5C188 172.814 185.314 175.5 182 175.5H6C2.68629 175.5 0 172.814 0 169.5V158.115ZM23.5 111.346C23.5 108.032 26.1863 105.346 29.5 105.346H41C44.3137 105.346 47 108.032 47 111.346V134.423C47 137.737 44.3137 140.423 41 140.423H29.5C26.1863 140.423 23.5 137.737 23.5 134.423V111.346ZM58.75 64.5769C58.75 61.2632 61.4363 58.5769 64.75 58.5769H76.25C79.5637 58.5769 82.25 61.2632 82.25 64.5769V134.423C82.25 137.737 79.5637 140.423 76.25 140.423H64.75C61.4363 140.423 58.75 137.737 58.75 134.423V64.5769ZM94 99.6538C94 96.3401 96.6863 93.6538 100 93.6538H111.5C114.814 93.6538 117.5 96.3401 117.5 99.6538V134.423C117.5 137.737 114.814 140.423 111.5 140.423H100C96.6863 140.423 94 137.737 94 134.423V99.6538ZM129.25 29.5C129.25 26.1863 131.936 23.5 135.25 23.5H146.75C150.064 23.5 152.75 26.1863 152.75 29.5V134.423C152.75 137.737 150.064 140.423 146.75 140.423H135.25C131.936 140.423 129.25 137.737 129.25 134.423V29.5Z" fill="#9F9F9F"/>
</g>
</svg>
