<svg width="32" height="32" viewBox="0 0 32 32" fill="none" xmlns="http://www.w3.org/2000/svg">
<path d="M16 3.125C14.65 3.125 13.5625 4.20938 13.5625 5.5625C13.5625 6.9125 14.65 8 16 8C17.35 8 18.4375 6.9125 18.4375 5.5625C18.4375 4.20938 17.35 3.125 16 3.125ZM13 8.6875C11.65 8.6875 10.5625 9.775 10.5625 11.125C10.5625 12.475 11.65 13.5625 13 13.5625C14.35 13.5625 15.4375 12.475 15.4375 11.125C15.4375 9.775 14.35 8.6875 13 8.6875ZM19 8.6875C17.65 8.6875 16.5625 9.775 16.5625 11.125C16.5625 12.475 17.65 13.5625 19 13.5625C20.35 13.5625 21.4375 12.475 21.4375 11.125C21.4375 9.775 20.35 8.6875 19 8.6875ZM10 14.3125C8.65 14.3125 7.5625 15.4 7.5625 16.75C7.5625 18.1 8.65 19.1875 10 19.1875C11.35 19.1875 12.4375 18.1 12.4375 16.75C12.4375 15.4 11.35 14.3125 10 14.3125ZM16 14.3125C14.65 14.3125 13.5625 15.4 13.5625 16.75C13.5625 18.1 14.65 19.1875 16 19.1875C17.35 19.1875 18.4375 18.1 18.4375 16.75C18.4375 15.4 17.35 14.3125 16 14.3125ZM22 14.3125C20.65 14.3125 19.5625 15.4 19.5625 16.75C19.5625 18.1 20.65 19.1875 22 19.1875C23.35 19.1875 24.4375 18.1 24.4375 16.75C24.4375 15.4 23.35 14.3125 22 14.3125ZM7 19.9C5.64687 19.9 4.5625 20.9875 4.5625 22.3375C4.5625 23.6875 5.64687 24.775 7 24.775C8.35 24.775 9.4375 23.6875 9.4375 22.3375C9.4375 20.9875 8.35 19.9 7 19.9ZM13 19.9C11.65 19.9 10.5625 20.9875 10.5625 22.3375C10.5625 23.6875 11.65 24.775 13 24.775C14.35 24.775 15.4375 23.6875 15.4375 22.3375C15.4375 20.9875 14.35 19.9 13 19.9ZM19 19.9C17.65 19.9 16.5625 20.9875 16.5625 22.3375C16.5625 23.6875 17.65 24.775 19 24.775C20.35 24.775 21.4375 23.6875 21.4375 22.3375C21.4375 20.9875 20.35 19.9 19 19.9ZM25 19.9C23.65 19.9 22.5625 20.9875 22.5625 22.3375C22.5625 23.6875 23.65 24.775 25 24.775C26.35 24.775 27.4375 23.6875 27.4375 22.3375C27.4375 20.9875 26.35 19.9 25 19.9ZM4 25.5625C2.64688 25.5625 1.5625 26.65 1.5625 28C1.5625 29.35 2.64688 30.4375 4 30.4375C5.35313 30.4375 6.4375 29.35 6.4375 28C6.4375 26.65 5.35313 25.5625 4 25.5625ZM10 25.5625C8.65 25.5625 7.5625 26.65 7.5625 28C7.5625 29.35 8.65 30.4375 10 30.4375C11.35 30.4375 12.4375 29.35 12.4375 28C12.4375 26.65 11.35 25.5625 10 25.5625ZM16 25.5625C14.65 25.5625 13.5625 26.65 13.5625 28C13.5625 29.35 14.65 30.4375 16 30.4375C17.35 30.4375 18.4375 29.35 18.4375 28C18.4375 26.65 17.35 25.5625 16 25.5625ZM22 25.5625C20.65 25.5625 19.5625 26.65 19.5625 28C19.5625 29.35 20.65 30.4375 22 30.4375C23.35 30.4375 24.4375 29.35 24.4375 28C24.4375 26.65 23.35 25.5625 22 25.5625ZM28 25.5625C26.65 25.5625 25.5625 26.65 25.5625 28C25.5625 29.35 26.65 30.4375 28 30.4375C29.35 30.4375 30.4375 29.35 30.4375 28C30.4375 26.65 29.35 25.5625 28 25.5625Z" fill="#CBCCD1"/>
</svg>
