<svg width="32" height="32" viewBox="0 0 32 32" fill="none" xmlns="http://www.w3.org/2000/svg">
<path d="M19.9013 3.88131L11.032 8.13997C10.3626 8.46623 9.6012 8.55193 8.876 8.38264C8.57002 8.30676 8.26083 8.24447 7.94933 8.19597C5.516 7.91997 4 9.84531 4 12.06V13.276C4 15.4893 5.516 17.416 7.94933 17.1373C8.26115 17.0912 8.57044 17.0294 8.876 16.952C9.60135 16.7831 10.3627 16.8693 11.032 17.196L19.9013 21.4533C21.9373 22.4306 22.956 22.92 24.0907 22.5386C25.2267 22.1573 25.616 21.34 26.3947 19.7053C27.4514 17.5098 28.0001 15.1045 28.0001 12.668C28.0001 10.2314 27.4514 7.82613 26.3947 5.63064C25.616 3.99597 25.2267 3.17731 24.0907 2.79731C22.956 2.41597 21.9373 2.90264 19.9013 3.88131Z" stroke="#ECF0F1" stroke-width="2" stroke-linecap="round" stroke-linejoin="round"/>
<path d="M9.99998 16.6666V8.66663M15.2773 27.6933L13.2893 29.3333C8.80665 25.7786 9.35465 24.084 9.35465 17.3333H10.8666C11.48 21.1466 12.9266 22.9546 14.924 24.2626C16.1533 25.068 16.4066 26.7626 15.2773 27.6933Z" stroke="#ECF0F1" stroke-width="2" stroke-linecap="round" stroke-linejoin="round"/>
</svg>
