<svg width="25" height="24" viewBox="0 0 25 24" fill="none" xmlns="http://www.w3.org/2000/svg">
<path d="M14.9483 3.7752C15.004 3.71932 15.0702 3.67499 15.1431 3.64474C15.216 3.61449 15.2941 3.59892 15.3731 3.59892C15.452 3.59892 15.5301 3.61449 15.603 3.64474C15.6759 3.67499 15.7421 3.71932 15.7979 3.7752L19.3979 7.3752C19.4537 7.43093 19.4981 7.49714 19.5283 7.57003C19.5586 7.64293 19.5741 7.72107 19.5741 7.8C19.5741 7.87892 19.5586 7.95706 19.5283 8.02996C19.4981 8.10285 19.4537 8.16906 19.3979 8.2248L15.7979 11.8248C15.7421 11.8806 15.6759 11.9248 15.603 11.955C15.5301 11.9852 15.452 12.0008 15.3731 12.0008C15.2942 12.0008 15.2161 11.9852 15.1432 11.955C15.0703 11.9248 15.0041 11.8806 14.9483 11.8248C14.8925 11.769 14.8482 11.7028 14.818 11.6299C14.7879 11.557 14.7723 11.4789 14.7723 11.4C14.7723 11.3211 14.7879 11.243 14.818 11.1701C14.8482 11.0972 14.8925 11.031 14.9483 10.9752L17.5247 8.4H5.77307C5.61394 8.4 5.46133 8.33678 5.34881 8.22426C5.23628 8.11174 5.17307 7.95913 5.17307 7.8C5.17307 7.64087 5.23628 7.48825 5.34881 7.37573C5.46133 7.26321 5.61394 7.2 5.77307 7.2H17.5247L14.9483 4.6248C14.8924 4.56906 14.8481 4.50285 14.8178 4.42996C14.7876 4.35706 14.772 4.27892 14.772 4.2C14.772 4.12107 14.7876 4.04293 14.8178 3.97003C14.8481 3.89714 14.8924 3.83093 14.9483 3.7752ZM9.79787 12.1752C9.85375 12.2309 9.89808 12.2971 9.92833 12.37C9.95857 12.4429 9.97414 12.5211 9.97414 12.6C9.97414 12.6789 9.95857 12.7571 9.92833 12.83C9.89808 12.9028 9.85375 12.9691 9.79787 13.0248L7.22147 15.6H18.9731C19.1322 15.6 19.2848 15.6632 19.3973 15.7757C19.5099 15.8883 19.5731 16.0409 19.5731 16.2C19.5731 16.3591 19.5099 16.5117 19.3973 16.6243C19.2848 16.7368 19.1322 16.8 18.9731 16.8H7.22147L9.79787 19.3752C9.91053 19.4879 9.97383 19.6407 9.97383 19.8C9.97383 19.9593 9.91053 20.1121 9.79787 20.2248C9.68521 20.3375 9.5324 20.4008 9.37307 20.4008C9.21374 20.4008 9.06093 20.3375 8.94827 20.2248L5.34827 16.6248C5.29239 16.5691 5.24806 16.5028 5.21781 16.43C5.18757 16.3571 5.172 16.2789 5.172 16.2C5.172 16.1211 5.18757 16.0429 5.21781 15.97C5.24806 15.8971 5.29239 15.8309 5.34827 15.7752L8.94827 12.1752C9.004 12.1193 9.07022 12.075 9.14311 12.0447C9.216 12.0145 9.29415 11.9989 9.37307 11.9989C9.45199 11.9989 9.53014 12.0145 9.60303 12.0447C9.67592 12.075 9.74214 12.1193 9.79787 12.1752Z" fill="#ECF0F1"/>
</svg>
