<svg width="24" height="24" viewBox="0 0 24 24" fill="none" xmlns="http://www.w3.org/2000/svg">
<path d="M7.23211 8.61763C5.26416 9.06323 4.28018 9.28563 4.04579 10.0384C3.81219 10.7904 4.48258 11.5752 5.82415 13.1441L6.17134 13.5497C6.55213 13.9953 6.74332 14.2185 6.82892 14.4937C6.91452 14.7697 6.88572 15.0673 6.82812 15.6617L6.77532 16.2033C6.57293 18.2969 6.47133 19.3433 7.08412 19.8081C7.6969 20.2729 8.61848 19.8489 10.46 19.0009L10.9376 18.7817C11.4608 18.5401 11.7224 18.4201 12 18.4201C12.2776 18.4201 12.5392 18.5401 13.0632 18.7817L13.5392 19.0009C15.3815 19.8489 16.3031 20.2729 16.9151 19.8089C17.5287 19.3433 17.4271 18.2969 17.2247 16.2033M18.1759 13.1441C19.5174 11.576 20.1878 10.7912 19.9542 10.0384C19.7206 9.28563 18.7358 9.06243 16.7679 8.61763L16.2591 8.50243C15.6999 8.37603 15.4207 8.31283 15.1959 8.14243C14.9711 7.97203 14.8279 7.71362 14.5399 7.19682L14.2775 6.72642C13.264 4.90881 12.7576 4 12 4C11.2424 4 10.736 4.90881 9.72245 6.72642" stroke="#545463" stroke-width="1.5" stroke-linecap="round"/>
</svg>
