<svg width="24" height="24" viewBox="0 0 24 24" fill="none" xmlns="http://www.w3.org/2000/svg">
<path d="M12 2.39999C9.45395 2.39999 7.01215 3.41142 5.2118 5.21177C3.41145 7.01212 2.40002 9.45392 2.40002 12C2.40002 14.5461 3.41145 16.9879 5.2118 18.7882C7.01215 20.5886 9.45395 21.6 12 21.6C14.5461 21.6 16.9879 20.5886 18.7882 18.7882C20.5886 16.9879 21.6 14.5461 21.6 12C21.6 9.45392 20.5886 7.01212 18.7882 5.21177C16.9879 3.41142 14.5461 2.39999 12 2.39999ZM10.0032 3.83879C11.3158 3.51736 12.6866 3.51736 13.9992 3.83879L12 5.00399L10.0032 3.83879ZM8.51042 4.35719L11.4024 6.04319V8.08319L8.07962 10.4256L6.20762 9.74519L5.45642 6.73079C6.27579 5.71236 7.32152 4.9004 8.51042 4.35719ZM4.56122 8.09519L5.03282 9.99119L3.63602 11.232C3.73802 10.1076 4.05962 9.04799 4.56122 8.09519ZM3.64202 12.8304L5.83442 10.8864L7.68962 11.5596L8.94362 15.5076L8.08322 16.7952H5.10242C4.28343 15.6207 3.78012 14.2554 3.64082 12.8304M6.11642 17.9952H7.98122L8.59322 19.68C7.67335 19.2713 6.83441 18.7007 6.11642 17.9952ZM10.0476 20.172L9.06962 17.4768L9.92162 16.2012H14.082L14.9352 17.4768L13.9572 20.1708C12.6722 20.4783 11.3327 20.4795 10.0476 20.172ZM15.4128 19.6764L16.0248 17.994H17.8836C17.1672 18.698 16.3304 19.2678 15.4128 19.6764ZM18.8976 16.794H15.924L15.06 15.504L16.29 11.5596L18.1704 10.8828L20.3592 12.8292C20.2199 14.2542 19.7166 15.6195 18.8976 16.794ZM20.3652 11.2284L18.9732 9.99119L19.4448 8.10479C19.9416 9.05279 20.2632 10.1088 20.3652 11.2284ZM18.5484 6.73799L17.7984 9.74159L15.8976 10.4256L12.6012 8.08319V6.04319L15.492 4.35599C16.683 4.90078 17.73 5.7165 18.5496 6.73799M8.87762 11.334L12 9.12839L15.1032 11.3328L13.9608 15H10.0404L8.87762 11.334Z" fill="#CBCCD1"/>
</svg>
