<svg width="32" height="32" viewBox="0 0 32 32" fill="none" xmlns="http://www.w3.org/2000/svg">
<path fill-rule="evenodd" clip-rule="evenodd" d="M16 4.33337C12.9058 4.33337 9.93839 5.56254 7.75046 7.75046C5.56254 9.93839 4.33337 12.9058 4.33337 16V23C4.33337 23.7957 4.64944 24.5588 5.21205 25.1214C5.77466 25.684 6.53772 26 7.33337 26H8.66671C9.46236 26 10.2254 25.684 10.788 25.1214C11.3506 24.5588 11.6667 23.7957 11.6667 23V18.3334C11.6667 17.5377 11.3506 16.7747 10.788 16.2121C10.2254 15.6494 9.46236 15.3334 8.66671 15.3334H7.33337C6.98493 15.3352 6.65604 15.3907 6.34671 15.5C6.4767 13.0276 7.55044 10.6992 9.34654 8.99507C11.1426 7.29093 13.5241 6.34092 16 6.34092C18.4759 6.34092 20.8575 7.29093 22.6535 8.99507C24.4496 10.6992 25.5234 13.0276 25.6534 15.5C25.3358 15.3908 25.0025 15.3345 24.6667 15.3334H23.3334C22.5377 15.3334 21.7747 15.6494 21.2121 16.2121C20.6494 16.7747 20.3334 17.5377 20.3334 18.3334V23C20.3334 23.7957 20.6494 24.5588 21.2121 25.1214C21.7747 25.684 22.5377 26 23.3334 26H24.6667C25.4624 26 26.2254 25.684 26.788 25.1214C27.3506 24.5588 27.6667 23.7957 27.6667 23V16C27.6667 14.468 27.3649 12.9509 26.7786 11.5354C26.1923 10.1199 25.333 8.83381 24.2496 7.75046C23.1663 6.66711 21.8801 5.80775 20.4647 5.22145C19.0492 4.63514 17.5321 4.33337 16 4.33337ZM25.6667 18.3147V23C25.6667 23.2653 25.5614 23.5196 25.3738 23.7071C25.1863 23.8947 24.9319 24 24.6667 24H23.3334C23.0682 24 22.8138 23.8947 22.6263 23.7071C22.4387 23.5196 22.3334 23.2653 22.3334 23V18.3334C22.3334 18.0682 22.4387 17.8138 22.6263 17.6263C22.8138 17.4387 23.0682 17.3334 23.3334 17.3334H24.6667C24.9287 17.3333 25.1803 17.4361 25.3673 17.6196C25.5543 17.8032 25.6618 18.0527 25.6667 18.3147ZM8.66671 17.3334C8.93192 17.3334 9.18628 17.4387 9.37381 17.6263C9.56135 17.8138 9.66671 18.0682 9.66671 18.3334V23C9.66671 23.2653 9.56135 23.5196 9.37381 23.7071C9.18628 23.8947 8.93192 24 8.66671 24H7.33337C7.06816 24 6.8138 23.8947 6.62627 23.7071C6.43873 23.5196 6.33337 23.2653 6.33337 23V18.3334C6.33337 18.0682 6.43873 17.8138 6.62627 17.6263C6.8138 17.4387 7.06816 17.3334 7.33337 17.3334H8.66671Z" fill="#ECF0F1"/>
</svg>
