<svg width="24" height="28" viewBox="0 0 24 28" fill="none" xmlns="http://www.w3.org/2000/svg">
<path d="M12 0.666656C15.0667 0.666656 17.7333 3.33332 17.7333 6.26666C17.7161 7.30054 17.429 8.31197 16.9004 9.2007C16.3719 10.0894 15.6202 10.8246 14.72 11.3333C16.0533 10.6667 18 10.6667 18 10.6667C21.3333 10.6667 24 13.0667 24 16.4C24 19.7333 21.3333 22 18 22C18 22 16 22 13.3333 20.6667C13.3333 20.6667 12.9333 23.3333 16 27.3333H8C11.0667 23.3333 10.6667 20.6667 10.6667 20.6667C8 22 6 22 6 22C2.66667 22 0 19.7333 0 16.4C0 13.0667 2.66667 10.6667 6 10.6667C6 10.6667 7.94667 10.6667 9.28 11.3333C8.88 11.1067 6.38667 9.69332 6.26667 6.26666C6.26667 3.33332 8.93333 0.666656 12 0.666656Z" fill="#ECF0F1"/>
</svg>
