<svg width="32" height="32" viewBox="0 0 32 32" fill="none" xmlns="http://www.w3.org/2000/svg">
<path d="M16 2.66666V29.3333M29.3333 16H2.66663M21.3333 3.99999L28 10.6667M28 3.99999L21.3333 10.6667M10.6666 24.6667C10.6666 25.5507 10.3154 26.3986 9.69032 27.0237C9.06519 27.6488 8.21735 28 7.33329 28C6.44924 28 5.60139 27.6488 4.97627 27.0237C4.35115 26.3986 3.99996 25.5507 3.99996 24.6667C3.99996 23.7826 4.35115 22.9348 4.97627 22.3096C5.60139 21.6845 6.44924 21.3333 7.33329 21.3333C8.21735 21.3333 9.06519 21.6845 9.69032 22.3096C10.3154 22.9348 10.6666 23.7826 10.6666 24.6667Z" stroke="#ECF0F1" stroke-width="2" stroke-linecap="round" stroke-linejoin="round"/>
</svg>
