<svg width="32" height="32" viewBox="0 0 32 32" fill="none" xmlns="http://www.w3.org/2000/svg">
<path d="M16 2.0625C14.4375 2.0625 13.0187 2.18938 12.025 2.38438C11.6375 2.46125 11.3375 2.55 11.1062 2.635C11.3375 2.72 11.6375 2.80875 12.025 2.88562C13.0187 3.08062 14.4375 3.2075 16 3.2075C17.5625 3.2075 18.9813 3.08062 19.975 2.88562C20.3625 2.80875 20.6625 2.72 20.8937 2.635C20.6625 2.55 20.3625 2.46125 19.975 2.38438C18.9813 2.18938 17.5625 2.0625 16 2.0625ZM9.7 2.39438C8.50625 2.95063 7.8625 4.02062 8.025 5.08687C8.15 5.85687 8.70625 6.55625 9.5875 6.91875C10.0938 7.13125 10.7063 7.24375 11.425 7.2375C12.2563 8.78125 13.3812 10.0562 14.5875 10.65V13.3938C13.525 14.0375 12.8188 15.375 12.125 16.75C14.55 17.3687 17.4562 17.3375 19.8687 16.7437C19.1812 15.3687 18.4688 14.0375 17.4125 13.3938V10.65C18.6187 10.0562 19.7438 8.78125 20.575 7.2375C21.2938 7.24375 21.9062 7.13125 22.4125 6.91875C23.2938 6.55625 23.85 5.85687 23.975 5.08687C24.1375 4.02062 23.4937 2.95063 22.3 2.39438C22.325 2.46938 22.3375 2.54937 22.3375 2.635C22.3375 2.90688 22.1938 3.12938 22.0438 3.26938C21.9 3.40938 21.7375 3.5025 21.5562 3.58687C21.1938 3.75563 20.7375 3.88188 20.1875 3.98938C19.0938 4.20563 17.625 4.3325 16 4.3325C14.375 4.3325 12.9062 4.20563 11.8125 3.98938C11.2625 3.88188 10.8063 3.75563 10.4438 3.58687C10.2625 3.5025 10.1 3.40938 9.95625 3.26938C9.80625 3.12938 9.6625 2.90688 9.6625 2.635C9.6625 2.54937 9.675 2.46938 9.7 2.39438ZM10.1125 3.41375C10.2563 4.31 10.5188 5.22062 10.8813 6.085C10.5312 6.05063 10.25 5.97813 10.0188 5.8825C9.43125 5.63875 9.19375 5.28063 9.1375 4.91313C9.0625 4.4175 9.34375 3.77875 10.1125 3.41375ZM21.8875 3.41375C22.6562 3.77875 22.9375 4.4175 22.8625 4.91313C22.8062 5.28063 22.5688 5.63875 21.9813 5.8825C21.75 5.97813 21.4688 6.05063 21.1187 6.085C21.4812 5.22062 21.7438 4.31 21.8875 3.41375ZM26.3062 17.1375C25.6687 17.15 25.05 17.4625 24.5125 18.025C23.9125 18.6687 23.45 19.6375 23.3312 20.7563C23.2125 21.875 23.45 22.9187 23.9 23.675C24.3562 24.4375 25 24.9 25.7313 24.975C26.4688 25.0562 27.1937 24.7437 27.8 24.1C28.4062 23.4563 28.8625 22.4875 28.9875 21.3687C29.1062 20.25 28.8688 19.2063 28.4188 18.45C27.9563 17.6875 27.3187 17.225 26.5812 17.15C26.4875 17.1375 26.4 17.1375 26.3062 17.1375ZM5.69375 17.1375C5.6 17.1375 5.50625 17.1375 5.41875 17.15C4.68125 17.2312 4.04375 17.7 3.5875 18.45C3.13125 19.2125 2.89375 20.2563 3.01875 21.375C3.1375 22.4937 3.59375 23.4625 4.2 24.1063C4.80625 24.7438 5.53125 25.0625 6.26875 24.9813C7.00625 24.9 7.64375 24.4375 8.1 23.6812C8.55625 22.9187 8.79375 21.875 8.66875 20.7563C8.55 19.6375 8.09375 18.6687 7.48125 18.025C6.95625 17.4688 6.33125 17.1563 5.69375 17.1375ZM19.3125 18.0187C18.6375 18.15 17.9437 18.2438 17.2375 18.2938C18.0812 21.0312 19.575 23.5125 21.225 25.925C21.575 25.4125 21.9625 25.0063 22.3875 24.6812C22.575 24.5375 22.7687 24.4125 22.9625 24.3062L22.9688 24.3C22.9562 24.2812 22.95 24.2687 22.9375 24.25C22.6938 23.8438 22.5063 23.3875 22.375 22.8937C21.2563 21.5125 20.1313 20.0437 19.3125 18.0187ZM12.6812 18.0312C11.8625 20.0438 10.7438 21.5125 9.63125 22.8875C9.5 23.3813 9.30625 23.8438 9.0625 24.2563C9.05625 24.2688 9.04375 24.2875 9.03125 24.3L9.0375 24.3062C9.23125 24.4125 9.425 24.5375 9.6125 24.6812C10.0375 25.0063 10.425 25.4125 10.775 25.925C12.425 23.5187 13.9125 21.0375 14.7625 18.3C14.0562 18.25 13.3562 18.1625 12.6812 18.0312ZM28.35 25.1313C27.5813 25.8125 26.625 26.2062 25.6125 26.0938C24.8812 26.0187 24.225 25.6875 23.6938 25.1938C23.475 25.3 23.2688 25.425 23.075 25.575C22.125 26.3 21.2938 28.1875 20.6938 30.9375H30.4375V27.2C30.3 27.025 29.875 26.4812 29.2313 25.8625C28.9563 25.5938 28.65 25.3438 28.35 25.1313ZM3.65 25.1375C3.35 25.3438 3.04375 25.5938 2.76875 25.8625C2.125 26.4812 1.7 27.025 1.5625 27.2V30.9375H11.3062C10.7062 28.1875 9.875 26.3 8.925 25.575C8.73125 25.425 8.525 25.3 8.30625 25.1938C7.775 25.6875 7.125 26.0188 6.3875 26.1C5.38125 26.2125 4.4125 25.8188 3.65 25.1375Z" fill="#ECF0F1"/>
</svg>
