<svg width="20" height="14" viewBox="0 0 20 14" fill="none" xmlns="http://www.w3.org/2000/svg">
<path d="M19.5543 13.6292C19.509 13.7389 19.4321 13.8327 19.3334 13.8987C19.2347 13.9648 19.1187 14 18.9999 14H11.7999C11.6408 14 11.4882 13.9368 11.3757 13.8243C11.2631 13.7118 11.1999 13.5591 11.1999 13.4C11.1999 13.2409 11.2631 13.0883 11.3757 12.9757C11.4882 12.8632 11.6408 12.8 11.7999 12.8H17.5515L10.5999 5.84841L8.02473 8.42481C7.96899 8.48069 7.90278 8.52502 7.82989 8.55527C7.75699 8.58552 7.67885 8.60109 7.59993 8.60109C7.52101 8.60109 7.44286 8.58552 7.36997 8.55527C7.29707 8.52502 7.23086 8.48069 7.17513 8.42481L0.575128 1.82481C0.519342 1.76903 0.475091 1.7028 0.4449 1.62991C0.414709 1.55703 0.39917 1.47891 0.39917 1.40001C0.39917 1.32112 0.414709 1.243 0.4449 1.17011C0.475091 1.09723 0.519342 1.031 0.575128 0.975213C0.630913 0.919428 0.69714 0.875176 0.770028 0.844985C0.842915 0.814794 0.921035 0.799255 0.999928 0.799255C1.07882 0.799255 1.15694 0.814794 1.22983 0.844985C1.30272 0.875176 1.36894 0.919428 1.42473 0.975213L7.59993 7.15161L10.1751 4.57521C10.2309 4.51934 10.2971 4.47501 10.37 4.44476C10.4429 4.41451 10.521 4.39894 10.5999 4.39894C10.6788 4.39894 10.757 4.41451 10.8299 4.44476C10.9028 4.47501 10.969 4.51934 11.0247 4.57521L18.3999 11.9516V6.20001C18.3999 6.04088 18.4631 5.88827 18.5757 5.77575C18.6882 5.66323 18.8408 5.60001 18.9999 5.60001C19.1591 5.60001 19.3117 5.66323 19.4242 5.77575C19.5367 5.88827 19.5999 6.04088 19.5999 6.20001V13.4C19.5999 13.4787 19.5844 13.5565 19.5543 13.6292Z" fill="#ECF0F1"/>
</svg>
