<svg width="32" height="32" viewBox="0 0 32 32" fill="none" xmlns="http://www.w3.org/2000/svg">
<path d="M16 16C17.5913 16 19.1174 15.3679 20.2426 14.2426C21.3679 13.1174 22 11.5913 22 10C22 8.4087 21.3679 6.88258 20.2426 5.75736C19.1174 4.63214 17.5913 4 16 4C14.4087 4 12.8826 4.63214 11.7574 5.75736C10.6321 6.88258 10 8.4087 10 10C10 11.5913 10.6321 13.1174 11.7574 14.2426C12.8826 15.3679 14.4087 16 16 16ZM16 18C13.8783 18 11.8434 17.1571 10.3431 15.6569C8.84285 14.1566 8 12.1217 8 10C8 7.87827 8.84285 5.84344 10.3431 4.34315C11.8434 2.84285 13.8783 2 16 2C18.1217 2 20.1566 2.84285 21.6569 4.34315C23.1571 5.84344 24 7.87827 24 10C24 12.1217 23.1571 14.1566 21.6569 15.6569C20.1566 17.1571 18.1217 18 16 18ZM26 28V25C26 24.2044 25.6839 23.4413 25.1213 22.8787C24.5587 22.3161 23.7956 22 23 22H9C8.20435 22 7.44129 22.3161 6.87868 22.8787C6.31607 23.4413 6 24.2044 6 25V28C6 28.2652 5.89464 28.5196 5.70711 28.7071C5.51957 28.8946 5.26522 29 5 29C4.73478 29 4.48043 28.8946 4.29289 28.7071C4.10536 28.5196 4 28.2652 4 28V25C4 23.6739 4.52678 22.4021 5.46447 21.4645C6.40215 20.5268 7.67392 20 9 20H23C24.3261 20 25.5979 20.5268 26.5355 21.4645C27.4732 22.4021 28 23.6739 28 25V28C28 28.2652 27.8946 28.5196 27.7071 28.7071C27.5196 28.8946 27.2652 29 27 29C26.7348 29 26.4804 28.8946 26.2929 28.7071C26.1054 28.5196 26 28.2652 26 28Z" fill="#ECF0F1"/>
</svg>
