<svg width="28" height="25" viewBox="0 0 28 25" fill="none" xmlns="http://www.w3.org/2000/svg">
<path d="M4.66669 24.6667V22H23.3334V24.6667H4.66669ZM4.66669 20L2.96669 9.30002C2.92225 9.30002 2.87202 9.3058 2.81602 9.31736C2.76002 9.32891 2.71025 9.33425 2.66669 9.33336C2.11113 9.33336 1.63913 9.13869 1.25069 8.74936C0.862246 8.36002 0.667579 7.88802 0.66669 7.33336C0.665801 6.77869 0.860468 6.30669 1.25069 5.91736C1.64091 5.52802 2.11291 5.33336 2.66669 5.33336C3.22047 5.33336 3.69291 5.52802 4.08402 5.91736C4.47514 6.30669 4.66936 6.77869 4.66669 7.33336C4.66669 7.48891 4.6498 7.63336 4.61602 7.76669C4.58225 7.90002 4.54358 8.02225 4.50002 8.13336L8.66669 10L12.8334 4.30002C12.5889 4.12225 12.3889 3.88891 12.2334 3.60002C12.0778 3.31113 12 3.00002 12 2.66669C12 2.11113 12.1947 1.63869 12.584 1.24936C12.9734 0.860023 13.4454 0.665801 14 0.66669C14.5547 0.667579 15.0271 0.862246 15.4174 1.25069C15.8076 1.63913 16.0018 2.11113 16 2.66669C16 3.00002 15.9222 3.31113 15.7667 3.60002C15.6111 3.88891 15.4111 4.12225 15.1667 4.30002L19.3334 10L23.5 8.13336C23.4556 8.02225 23.4165 7.90002 23.3827 7.76669C23.3489 7.63336 23.3325 7.48891 23.3334 7.33336C23.3334 6.7778 23.528 6.30536 23.9174 5.91602C24.3067 5.52669 24.7787 5.33247 25.3334 5.33336C25.888 5.33425 26.3605 5.52891 26.7507 5.91736C27.1409 6.3058 27.3351 6.7778 27.3334 7.33336C27.3316 7.88891 27.1374 8.36136 26.7507 8.75069C26.364 9.14002 25.8916 9.33425 25.3334 9.33336C25.2889 9.33336 25.2391 9.32802 25.184 9.31736C25.1289 9.30669 25.0787 9.30091 25.0334 9.30002L23.3334 20H4.66669ZM6.93336 17.3334H21.0667L21.9334 11.7667L18.4334 13.3L14 7.20002L9.56669 13.3L6.06669 11.7667L6.93336 17.3334Z" fill="#ECF0F1"/>
</svg>
