<svg width="32" height="32" viewBox="0 0 32 32" fill="none" xmlns="http://www.w3.org/2000/svg">
<path d="M28.4444 13.3333H27.5556V7.99999C27.5556 7.76424 27.4619 7.53815 27.2952 7.37145C27.1285 7.20475 26.9024 7.1111 26.6667 7.1111H5.33334C5.12286 7.11453 4.91799 7.04315 4.75521 6.90968C4.59244 6.7762 4.48231 6.58928 4.44445 6.38221V6.06221C4.48231 5.85514 4.59244 5.66822 4.75521 5.53474C4.91799 5.40126 5.12286 5.32989 5.33334 5.33332H26.2933C26.5291 5.33332 26.7552 5.23967 26.9219 5.07297C27.0886 4.90627 27.1822 4.68018 27.1822 4.44443C27.1822 4.20868 27.0886 3.98259 26.9219 3.81589C26.7552 3.64919 26.5291 3.55554 26.2933 3.55554H5.33334C4.62609 3.55554 3.94782 3.83649 3.44772 4.33659C2.94762 4.83669 2.66667 5.51496 2.66667 6.22221C2.66026 6.32878 2.66026 6.43564 2.66667 6.54221V24.8267C2.67016 25.3053 2.76788 25.7785 2.95427 26.2193C3.14065 26.6601 3.41203 27.0599 3.75293 27.3959C4.09383 27.7318 4.49756 27.9973 4.94107 28.1772C5.38458 28.3572 5.85918 28.4479 6.33778 28.4444H26.6667C26.9024 28.4444 27.1285 28.3508 27.2952 28.1841C27.4619 28.0174 27.5556 27.7913 27.5556 27.5555V22.2222H28.4444C28.6802 22.2222 28.9063 22.1286 29.073 21.9619C29.2397 21.7952 29.3333 21.5691 29.3333 21.3333V14.2222C29.3333 13.9865 29.2397 13.7604 29.073 13.5937C28.9063 13.427 28.6802 13.3333 28.4444 13.3333ZM25.7778 26.6667H6.33778C5.84338 26.6714 5.3671 26.4808 5.01253 26.1362C4.65796 25.7916 4.4538 25.321 4.44445 24.8267V8.78221C4.73295 8.86598 5.03321 8.90201 5.33334 8.88888H25.7778V13.3333H19.5556C18.3768 13.3333 17.2464 13.8016 16.4129 14.6351C15.5794 15.4686 15.1111 16.599 15.1111 17.7778C15.1111 18.9565 15.5794 20.087 16.4129 20.9205C17.2464 21.754 18.3768 22.2222 19.5556 22.2222H25.7778V26.6667ZM27.5556 20.4444H19.5556C18.8483 20.4444 18.17 20.1635 17.6699 19.6634C17.1698 19.1633 16.8889 18.485 16.8889 17.7778C16.8889 17.0705 17.1698 16.3922 17.6699 15.8921C18.17 15.392 18.8483 15.1111 19.5556 15.1111H27.5556V20.4444Z" fill="#000A27"/>
<path d="M20.4533 19.1111C21.1897 19.1111 21.7867 18.5142 21.7867 17.7778C21.7867 17.0414 21.1897 16.4445 20.4533 16.4445C19.7169 16.4445 19.12 17.0414 19.12 17.7778C19.12 18.5142 19.7169 19.1111 20.4533 19.1111Z" fill="#000A27"/>
</svg>
