<svg xmlns="http://www.w3.org/2000/svg" viewBox="0 0 614.66 618.98"><defs><style>.cls-1{fill:#fff;}.cls-2{fill:#00dd25;}</style></defs><g id="Layer_2" data-name="Layer 2"><g id="Layer_1-2" data-name="Layer 1"><polygon class="cls-1" points="352.78 618.98 71.42 515.1 0 202.36 283.91 299.75 352.78 618.98"/><polygon class="cls-1" points="375.2 616.13 614.66 407.97 552.97 97.39 305.16 295.42 375.2 616.13"/><polygon class="cls-1" points="536.83 82.63 257.55 0 8.27 183.27 290.01 280.97 536.83 82.63"/><ellipse cx="62.8" cy="288.86" rx="26.5" ry="43.73" transform="translate(-177.76 117.05) rotate(-42.2)"/><ellipse cx="119.21" cy="167.81" rx="43.73" ry="23.5" transform="translate(-35.02 31.49) rotate(-13.14)"/><ellipse cx="199.65" cy="107.21" rx="43.73" ry="23.5" transform="translate(-19.14 48.18) rotate(-13.14)"/><ellipse cx="277.93" cy="49.89" rx="43.73" ry="23.5" transform="translate(-4.07 64.48) rotate(-13.14)"/><ellipse cx="271.79" cy="217.98" rx="43.73" ry="23.5" transform="translate(-42.43 67.48) rotate(-13.14)"/><ellipse cx="352.23" cy="157.02" rx="43.73" ry="23.5" transform="translate(-26.47 84.17) rotate(-13.14)"/><ellipse cx="430.51" cy="95.34" rx="43.73" ry="23.5" transform="translate(-10.4 100.35) rotate(-13.14)"/><ellipse cx="165.96" cy="415.83" rx="26.5" ry="43.73" transform="translate(-236.31 219.26) rotate(-42.2)"/><ellipse cx="278.5" cy="547.13" rx="26.5" ry="43.73" transform="translate(-295.33 328.89) rotate(-42.2)"/><path class="cls-2" d="M421.25,413.68l22.22-68.35,30.81-18.58,53.2,34.2L498.09,218.89l55.18-46.53,39,195.87-53.08,48.63L472.88,387.4,441.12,503l-54.5,47L340.09,333.6l58.44-40Z"/></g></g></svg>