<svg xmlns="http://www.w3.org/2000/svg" viewBox="0 0 1508.6 267.68"><defs><style>.cls-1{fill:#fff;}.cls-2{fill:#00dd25;}</style></defs><g id="Layer_2" data-name="Layer 2"><g id="Layer_1-2" data-name="Layer 1"><polygon class="cls-1" points="152.56 267.68 30.89 222.76 0 87.51 122.78 129.63 152.56 267.68"/><polygon class="cls-1" points="162.26 266.45 265.81 176.43 239.13 42.12 131.97 127.76 162.26 266.45"/><polygon class="cls-1" points="232.16 35.73 111.38 0 3.58 79.26 125.42 121.5 232.16 35.73"/><ellipse cx="27.16" cy="124.92" rx="11.46" ry="18.91" transform="translate(-76.87 50.62) rotate(-42.2)"/><ellipse cx="51.55" cy="72.57" rx="18.91" ry="10.16" transform="translate(-15.15 13.62) rotate(-13.14)"/><ellipse cx="86.34" cy="46.36" rx="18.91" ry="10.16" transform="translate(-8.28 20.84) rotate(-13.14)"/><ellipse cx="120.19" cy="21.58" rx="18.91" ry="10.16" transform="translate(-1.76 27.88) rotate(-13.14)"/><ellipse cx="117.54" cy="94.27" rx="18.91" ry="10.16" transform="translate(-18.35 29.18) rotate(-13.14)"/><ellipse cx="152.32" cy="67.9" rx="18.91" ry="10.16" transform="translate(-11.45 36.4) rotate(-13.14)"/><ellipse cx="186.17" cy="41.23" rx="18.91" ry="10.16" transform="translate(-4.5 43.39) rotate(-13.14)"/><ellipse cx="71.77" cy="179.83" rx="11.46" ry="18.91" transform="translate(-102.19 94.82) rotate(-42.2)"/><ellipse cx="120.44" cy="236.61" rx="11.46" ry="18.91" transform="translate(-127.72 142.23) rotate(-42.2)"/><path class="cls-2" d="M182.17,178.9l9.61-29.56,13.32-8,23,14.8L215.4,94.66l23.87-20.12,16.84,84.7-23,21L204.5,167.53l-13.74,50L167.2,237.86l-20.13-93.59L172.34,127Z"/><path class="cls-1" d="M428.49,102.81c0,11.35-5.46,22.28-19.12,28.37,17.23,5.25,23.53,23.53,23.53,32.78,0,32.77-24.58,43.28-55,43.28H308.1V60.16h69.75C406.85,60.16,428.49,73.19,428.49,102.81ZM335.41,119.2h42.44c17.44,0,23.12-7.35,23.12-15.76,0-6.72-5.47-18.07-23.12-18.07H335.41Zm0,62.2h42.44c11.35,0,27.53-3.79,27.53-17.65,0-13.24-16.18-20.17-27.53-20.17H335.41Z"/><path class="cls-1" d="M480.18,60.16V181.61h75.64v25.63H452.44V60.16Z"/><path class="cls-1" d="M715.51,134.54c-.42,38-23.75,76.06-75.44,76.06s-75.64-37.19-75.64-75.85,24.8-77.53,75.64-77.53C690.71,57.22,715.93,96.09,715.51,134.54Zm-123.76.63c.63,24.16,13.66,50,48.32,50s47.7-26.06,48.12-50.22c.42-24.79-13.45-52.53-48.12-52.53S591.12,110.38,591.75,135.17Z"/><path class="cls-1" d="M865.52,188.75c-15.12,14.92-34.66,21.85-55.89,21.85-54.62,0-77.74-37.61-78-75.85-.21-38.45,24.8-77.53,78-77.53,20,0,38.88,7.56,54,22.48L845.14,97.56c-9.66-9.45-22.69-13.87-35.51-13.87-35.5,0-50.84,26.48-50.63,51.06.21,24.37,14.28,49.8,50.63,49.8,12.82,0,27.32-5.26,37-14.92Z"/><path class="cls-1" d="M999.36,61,934,131.39l70.81,74.17v1.68H970.58L909,142.11v65.13H881.28V60.16H909v62.19l55.89-62.19h34.45Z"/><path class="cls-1" d="M1198.9,207.45V60.37h27.52V207.45Z"/><path class="cls-1" d="M1349.13,60.16h27.73V207.45h-17.23v.21l-77.32-99.38v99.17h-27.73V60.37h22.48l72.07,91.19Z"/><path class="cls-1" d="M1395.56,60.37h113v13l-76.27,107.79h76.27v26.26H1393.67v-16l74.59-105h-72.7Z"/><path class="cls-2" d="M1042.72,167.42l47.5-64.17,5.47,0L1142.94,167l-.67-106.94,27.74-.18.92,147.08-31.94.2-46.41-62.95L1047,207.74l-31.72.2-.93-147.08,27.74-.17Z"/></g></g></svg>