<svg xmlns="http://www.w3.org/2000/svg" viewBox="0 0 1388.11 153.38"><defs><style>.cls-1{fill:#fff;}.cls-2{fill:#00dd25;}</style></defs><g id="Layer_2" data-name="Layer 2"><g id="Layer_1-2" data-name="Layer 1"><polygon class="cls-1" points="86.14 152.19 17.44 126.83 0 50.46 69.33 74.24 86.14 152.19"/><polygon class="cls-1" points="91.62 151.5 150.09 100.67 135.02 24.83 74.51 73.19 91.62 151.5"/><polygon class="cls-1" points="131.08 21.23 62.89 1.05 2.02 45.8 70.81 69.66 131.08 21.23"/><ellipse cx="15.33" cy="71.59" rx="6.47" ry="10.68" transform="translate(-44.11 28.85) rotate(-42.2)"/><ellipse cx="29.11" cy="42.03" rx="10.68" ry="5.74" transform="translate(-8.79 7.72) rotate(-13.14)"/><ellipse cx="48.75" cy="27.23" rx="10.68" ry="5.74" transform="translate(-4.91 11.79) rotate(-13.14)"/><ellipse cx="67.86" cy="13.23" rx="10.68" ry="5.74" transform="translate(-1.23 15.77) rotate(-13.14)"/><ellipse cx="66.37" cy="54.28" rx="10.68" ry="5.74" transform="translate(-10.6 16.5) rotate(-13.14)"/><ellipse cx="86.01" cy="39.39" rx="10.68" ry="5.74" transform="translate(-6.7 20.58) rotate(-13.14)"/><ellipse cx="105.12" cy="24.33" rx="10.68" ry="5.74" transform="translate(-2.78 24.53) rotate(-13.14)"/><ellipse cx="40.52" cy="102.59" rx="6.47" ry="10.68" transform="translate(-58.41 53.81) rotate(-42.2)"/><ellipse cx="68" cy="134.65" rx="6.47" ry="10.68" transform="translate(-72.82 80.58) rotate(-42.2)"/><path class="cls-2" d="M102.86,102.06l5.43-16.69,7.52-4.53,13,8.35L121.62,54.5,135.1,43.14,144.61,91l-13,11.88-16.18-7.19-7.76,28.22L94.4,135.36,83,82.51l14.27-9.78Z"/><path class="cls-1" d="M308,45.59c0,11.35-5.46,22.28-19.12,28.37,17.23,5.25,23.53,23.53,23.53,32.78,0,32.78-24.58,43.28-55,43.28H187.6V2.94h69.76C286.35,2.94,308,16,308,45.59ZM214.91,62h42.45c17.43,0,23.11-7.35,23.11-15.76,0-6.72-5.47-18.07-23.11-18.07H214.91Zm0,62.2h42.45c11.34,0,27.52-3.79,27.52-17.65,0-13.24-16.18-20.17-27.52-20.17H214.91Z"/><path class="cls-1" d="M359.68,2.94V124.39h75.64V150H332V2.94Z"/><path class="cls-1" d="M595,77.32c-.42,38-23.75,76.06-75.43,76.06s-75.64-37.19-75.64-75.85S468.73,0,519.58,0C570.21,0,595.43,38.87,595,77.32ZM471.25,78c.63,24.17,13.66,50,48.33,50s47.69-26.06,48.11-50.22c.42-24.79-13.44-52.53-48.11-52.53S470.62,53.16,471.25,78Z"/><path class="cls-1" d="M745,131.53c-15.13,14.92-34.67,21.85-55.89,21.85-54.63,0-77.74-37.61-77.95-75.85C611,39.08,636,0,689.14,0c20,0,38.87,7.56,54,22.48L724.65,40.34C715,30.89,702,26.47,689.14,26.47c-35.51,0-50.85,26.48-50.64,51.06.21,24.37,14.29,49.8,50.64,49.8,12.81,0,27.31-5.25,37-14.92Z"/><path class="cls-1" d="M878.87,3.78,813.52,74.17l70.81,74.17V150H850.08L788.52,84.89V150H760.78V2.94h27.74V65.13L844.41,2.94h34.46Z"/><path class="cls-1" d="M1078.4,150.23V3.15h27.52V150.23Z"/><path class="cls-1" d="M1228.63,2.94h27.73V150.23h-17.22v.21l-77.33-99.38v99.17h-27.73V3.15h22.48l72.07,91.19Z"/><path class="cls-1" d="M1275.07,3.15h113v13L1311.83,124h76.28v26.26H1273.17v-16l74.59-105h-72.69Z"/><path class="cls-2" d="M922.22,110.2,969.72,46l5.47,0,47.25,63.78-.67-106.94,27.74-.17.92,147.07-31.94.2L972.08,87l-45.62,63.53-31.72.2L893.82,3.64l27.73-.17Z"/></g></g></svg>