<svg xmlns="http://www.w3.org/2000/svg" viewBox="0 0 1200.51 807.8"><defs><style>.cls-1{fill:#fff;}.cls-2{fill:#00dd25;}</style></defs><g id="Layer_2" data-name="Layer 2"><g id="Layer_1-2" data-name="Layer 1"><polygon class="cls-1" points="644.23 618.98 362.88 515.1 291.46 202.36 575.37 299.75 644.23 618.98"/><polygon class="cls-1" points="666.66 616.13 906.11 407.97 844.43 97.39 596.62 295.42 666.66 616.13"/><polygon class="cls-1" points="828.29 82.63 549 0 299.72 183.27 581.47 280.97 828.29 82.63"/><ellipse cx="354.25" cy="288.86" rx="26.5" ry="43.73" transform="translate(-102.21 312.83) rotate(-42.2)"/><ellipse cx="410.67" cy="167.81" rx="43.73" ry="23.5" transform="translate(-27.39 97.73) rotate(-13.14)"/><ellipse cx="491.11" cy="107.21" rx="43.73" ry="23.5" transform="translate(-11.51 114.43) rotate(-13.14)"/><ellipse cx="569.38" cy="49.89" rx="43.73" ry="23.5" transform="translate(3.56 130.72) rotate(-13.14)"/><ellipse cx="563.25" cy="217.98" rx="43.73" ry="23.5" transform="translate(-34.8 133.73) rotate(-13.14)"/><ellipse cx="643.69" cy="157.02" rx="43.73" ry="23.5" transform="translate(-18.84 150.41) rotate(-13.14)"/><ellipse cx="721.96" cy="95.34" rx="43.73" ry="23.5" transform="translate(-2.77 166.59) rotate(-13.14)"/><ellipse cx="457.42" cy="415.83" rx="26.5" ry="43.73" transform="translate(-160.76 415.04) rotate(-42.2)"/><ellipse cx="569.96" cy="547.13" rx="26.5" ry="43.73" transform="translate(-219.79 524.67) rotate(-42.2)"/><path class="cls-2" d="M712.71,413.68l22.22-68.35,30.8-18.58L818.94,361l-29.4-142.06,55.19-46.53,39,195.87L830.6,416.86,764.34,387.4,732.58,503l-54.5,47L631.55,333.6l58.43-40Z"/><path class="cls-1" d="M120.4,700c0,11.34-5.47,22.27-19.13,28.36,17.23,5.25,23.54,23.53,23.54,32.78,0,32.78-24.59,43.28-55,43.28H0V657.36H69.76C98.75,657.36,120.4,670.39,120.4,700ZM27.31,716.41H69.76c17.44,0,23.11-7.36,23.11-15.76,0-6.73-5.46-18.07-23.11-18.07H27.31Zm0,62.19H69.76c11.34,0,27.52-3.78,27.52-17.65,0-13.24-16.18-20.17-27.52-20.17H27.31Z"/><path class="cls-1" d="M172.08,657.36V778.81h75.64v25.63H144.35V657.36Z"/><path class="cls-1" d="M407.41,731.74c-.42,38-23.74,76.06-75.43,76.06S256.34,770.61,256.34,732s24.79-77.53,75.64-77.53C382.62,654.42,407.83,693.29,407.41,731.74Zm-123.76.63c.63,24.17,13.66,50,48.33,50s47.7-26,48.12-50.22c.42-24.79-13.45-52.53-48.12-52.53S283,707.58,283.65,732.37Z"/><path class="cls-1" d="M557.43,786c-15.13,14.92-34.67,21.85-55.89,21.85-54.63,0-77.74-37.61-78-75.85-.21-38.45,24.79-77.53,78-77.53,20,0,38.87,7.57,54,22.48l-18.49,17.86c-9.67-9.45-22.69-13.86-35.51-13.86-35.51,0-50.85,26.47-50.64,51.05.21,24.38,14.29,49.8,50.64,49.8,12.82,0,27.31-5.25,37-14.92Z"/><path class="cls-1" d="M691.27,658.2l-65.35,70.39,70.81,74.17v1.68H662.48l-61.56-65.13v65.13H573.19V657.36h27.73v62.2l55.89-62.2h34.46Z"/><path class="cls-1" d="M890.8,804.65V657.57h27.53V804.65Z"/><path class="cls-1" d="M1041,657.36h27.74V804.65h-17.23v.21l-77.32-99.38v99.17H946.48V657.57H969L1041,748.76Z"/><path class="cls-1" d="M1087.47,657.57h113v13l-76.27,107.79h76.27v26.26H1085.58v-16l74.59-105h-72.7Z"/><path class="cls-2" d="M734.62,764.62l47.51-64.17,5.46,0,47.26,63.78-.67-106.94,27.73-.17.92,147.07-31.94.2-46.41-63-45.61,63.53-31.73.2-.92-147.08,27.73-.17Z"/></g></g></svg>